<?xml version="1.0" encoding="UTF-8" standalone="no"?>
<!-- Created by UniConvertor 2.0rc5 (https://sk1project.net/) -->

<svg
   height="700.0px"
   width="700.0px"
   version="1.1"
   id="d25fff80-0968-11ee-a0f7-0242ac130009"
   sodipodi:docname="floral-butterfly.svg"
   inkscape:version="1.2.2 (732a01da63, 2022-12-09)"
   xmlns:inkscape="http://www.inkscape.org/namespaces/inkscape"
   xmlns:sodipodi="http://sodipodi.sourceforge.net/DTD/sodipodi-0.dtd"
   xmlns="http://www.w3.org/2000/svg"
   xmlns:svg="http://www.w3.org/2000/svg">
  <defs
     id="defs4968" >
     <link href="../pages/about/about.css" 
     rel="stylesheet" 
     type="text/css"
     xmlns="http://www.w3.org/1999/xhtml"
     />
     </defs>
  <sodipodi:namedview
     id="namedview4966"
     pagecolor="#ffffff"
     bordercolor="#00000"
     borderopacity="0.25"
     inkscape:showpageshadow="2"
     inkscape:pageopacity="0.0"
     inkscape:pagecheckerboard="0"
     inkscape:deskcolor="#d1d1d1"
     showgrid="false"
     inkscape:zoom="2"
     inkscape:cx="350"
     inkscape:cy="507.75"
     inkscape:window-width="1920"
     inkscape:window-height="1094"
     inkscape:window-x="-11"
     inkscape:window-y="-11"
     inkscape:window-maximized="1"
     inkscape:current-layer="d25fff80-0968-11ee-a0f7-0242ac130009" />
  <g
     id="g4963">
    <g
       id="g4959" />
    <path
       id="path4961"
       style="fill: #00000;"
       class="flowers"
       d="m 585.39258,109.45703 c -1.43594,0.10625 -2.86797,0.39336 -4.29297,0.94336 -5.6,2.2 -11.29883,3.80039 -17.29883,4.90039 -3.1,0.6 -6.30156,2.49922 -8.60156,4.69922 -1.6,1.5 -2.19844,2.19922 -4.39844,1.19922 -4.09999,-2 -5.60078,-1.09883 -7.30078,3.20117 -0.9,2.2 -2.19922,4.20039 -3.69922,6.90039 -2.6,-5.09999 -4.7,-9.30078 -7,-13.80078 -1.4,1 -2.50156,1.39922 -3.10156,2.19922 -2.5,3.2 -4.99883,6.50039 -7.29883,9.90039 C 516.9004,137.8996 513.1,146.80001 513,157 c 0,0.6 -0.59961,1.39961 -1.09961,1.59961 -2,0.8 -4.00117,1.40117 -6.20117,2.20117 0,-0.8 -0.1,-1.20156 0,-1.60156 1.2,-4.5 -0.49961,-8.99883 -4.59961,-11.29883 -4.7,-2.6 -9.5004,-5.20039 -14.40039,-7.40039 -3.3,-1.5 -6.69961,-1.90078 -10.09961,1.19922 -3.1,2.9 -6.99883,5 -10.79883,7 -4.49999,2.4 -8.8,6.50157 -6.5,12.10156 0.4,1 0.0996,2.19961 0.0996,3.59961 -1.6,-0.1 -2.8,-0.001 -4,-0.20117 -8.09999,-1.1 -16.50039,2.00001 -17.40039,11 -0.1,0.8 -1.19922,2.30117 -1.69922,2.20117 -2.9,-0.3 -3.7,1.89922 -5,3.69922 -1.9,2.6 -3.90039,5.00039 -5.90039,7.40039 C 419.7004,195.59999 414.6,202.99962 416,212.59961 c 0.6,4.39999 -1.39922,5.60117 -4.69922,6.20117 -4.29999,0.8 -8.60078,1.2 -12.80078,2 -5.69999,1 -9.8,4.09923 -12,9.69922 -2.3,5.79999 -1.4,11.6004 0,17.90039 -2.2,0 -4.1,-0.2 -6,0 -7.49999,0.9 -12.20039,4.2004 -13.40039,12.90039 -0.2,1.9 -1.29922,4.29922 -2.69922,5.19922 -4.59999,2.9 -9.5,5.49961 -12,11.09961 -3.6,-7.49999 -4.10078,-14.80001 -1.80078,-24 0.7,-2.7 0.6,-5.39883 -1.5,-7.29883 -2.1,-1.9 -2.29961,-4.20078 -1.59961,-6.30078 3.8,-11.79999 7.4004,-23.69923 11.90039,-35.19922 3.3,-8.59999 8.40001,-16.60118 14.5,-23.70117 7.79999,-9.09999 16.79923,-16.19922 29.69922,-15.69922 1.8,0.1 3.60117,-0.20117 3.70117,-2.20117 0,-1.4 -0.80039,-3.19961 -1.90039,-4.09961 -2.3,-2 -5.30078,-2.3 -8.30078,-1.5 -12.49999,3.1 -21.09962,11.50079 -28.59961,21.30078 -6.29999,8.29999 -11.49922,17.29962 -15.19922,27.09961 -3.99999,10.39999 -7.50156,21.00001 -11.10156,31.5 -0.9,2.8 -1.99883,4.79961 -5.29883,4.59961 -3.5,-0.2 -4.5,-1.4 -5.5,-5 -1.9,-6.99999 -3.69961,-14.09962 -6.59961,-20.59961 -5.69999,-12.89999 -12.60118,-25.2004 -21.20117,-36.40039 -8.19999,-10.79999 -17.89923,-19.5 -32.19922,-21 -1.8,-0.2 -3.99961,1.20039 -5.59961,2.40039 -0.8,0.6 -1.30039,3.29961 -0.90039,3.59961 1.4,0.9 3.20039,1.49961 4.90039,1.59961 6.39999,0.3 12.80001,1.40039 17.5,5.90039 5.2,4.99999 10.09962,10.30001 14.59961,16 12.29999,15.59998 21.3,32.80119 24.5,52.70117 0.2,0.8 0,2.09922 -0.5,2.69922 -2.8,3.1 -3.4,6.59961 -2.5,10.59961 0.8,3.6 1.8,7.30039 1.5,10.90039 -0.5,5.29999 -1.90039,10.5004 -2.90039,15.90039 -0.5,-0.2 -0.8,-0.3 -1,-0.5 -0.3,-0.3 -0.7,-0.70117 -1,-1.20117 C 310.70001,263.99923 300.60038,248.99999 288.90039,235 c -7.59999,-9.19999 -15.00118,-18.59923 -23.20117,-27.19922 -7.79999,-8.29999 -16.19845,-16.20157 -24.89844,-23.60156 -9.69999,-8.29999 -19.80118,-16.20001 -30.20117,-23.5 -16.09998,-11.39999 -33.69924,-20.29845 -52.19922,-27.39844 -19.19998,-7.29999 -39.0008,-11.20117 -59.300781,-12.70117 -18.099982,-1.4 -35.900017,0.89962 -53,7.59961 -3.999996,1.5 -8.298829,3.10157 -9.298828,8.10156 -1.199999,6.29999 -2.701563,12.69962 -3.101562,19.09961 -0.6,9.79999 0.300392,19.49923 1.90039,29.19922 3.099997,18.89998 9.199618,36.90119 17.09961,54.20117 8.099992,17.59998 17.200012,34.79884 29,50.29883 7.399992,9.69999 15.000399,19.40118 23.400391,28.20117 6.39999,6.79999 14.40118,12.10001 21.70117,18 7.79999,6.29999 16.59845,10.89844 26.39844,13.39844 6.09999,1.5 12.2004,3.2 18.90039,5 -0.6,1.5 -1,2.50117 -1.5,4.20117 -6.09999,9.99999 -10.89883,20.59923 -14.79883,31.69922 -4.49999,12.89999 -7.50156,26.00118 -8.60156,39.70117 -0.7,8.99999 -0.19883,17.80001 1.20117,26.5 1.4,8.69999 4.3,17.19923 6.5,25.69922 2.5,9.39999 2.99882,18.8004 -2.20117,27.40039 -4.9,7.99999 -10.79962,15.39962 -16.09961,23.09961 -3.7,5.19999 -7.29961,10.5004 -10.59961,15.90039 -1.7,2.7 -1.39922,6.00039 1.30078,7.90039 2.6,1.7 5.79883,1.6 8.29883,-0.5 4.3,-3.5 8.3,-7.4 12.5,-11 9.69999,-8.49999 20.30001,-15.60078 33,-18.80078 3,-0.7 6.5,-0.89961 9.5,-0.0996 5.99999,1.7 11.89961,4 17.59961,6.5 10.29999,4.4 20.80079,7.39922 32.30078,6.19922 7.39999,-0.8 14.39962,-2.89883 21.09961,-5.79883 18.49998,-7.99999 32.4004,-21.50119 43.90039,-37.70117 6.99999,-9.89999 12.59922,-20.59962 16.19922,-32.09961 3.1,-9.79999 5.10078,-19.99962 7.30078,-30.09961 0.7,-3.3 0.69961,-6.69961 1.09961,-10.09961 1.1,0.9 1.5,2.09922 2,3.19922 0.9,2.2 1.60117,4.49961 2.70117,6.59961 1.2,2.3 4.19844,2.29961 5.39844,0.0996 0.8,-1.4 1.80039,-2.89844 1.90039,-4.39844 C 342.49961,422.70079 346.2,420.9 350.5,419 c 0.6,2.2 0.99922,4.30078 1.69922,6.30078 2.6,7.89999 5.30039,15.89884 7.90039,23.79883 0.1,0.6 7.8e-4,1.30078 -0.19922,1.80078 -2.1,5.89999 -3.60078,11.99923 -2.80078,18.19922 0.8,5.79999 2.20118,11.7 8.20117,14.5 5.8,2.7 11.99884,1.60039 17.79883,-0.0996 C 388.2996,481.9 389.7,476.9 390,472 c 0.3,-5.49999 0.0996,-10.89962 0.0996,-16.59961 1.3,-0.3 2.5,-0.79961 3.5,-0.59961 1.5,0.3 4.70078,8.4 3.80078,10 -3.4,6.49999 -6.49961,13.19884 -10.59961,19.29883 -6.29999,9.39999 -9.60039,19.00118 -5.40039,30.20117 1.4,3.8 4.1,5.89922 8,6.69922 3.9,0.8 7.79922,1.8 11.69922,2.5 3.8,0.7 7.4,0.60039 10.5,-2.59961 5.09999,-5.29999 5.49961,-11.60118 4.59961,-18.20117 -0.4,-3.2 -1.09922,-6.49922 -1.69922,-9.69922 0.3,-0.1 0.7,-0.20078 1,-0.30078 0.5,1.2 1.4,2.20039 1.5,3.40039 0.7,6.79999 1.70039,13.50079 1.90039,20.30078 0.3,7.49999 1.70001,14.39883 6.5,20.29883 4.1,4.89999 8.79962,9.40039 16.59961,6.40039 5.59999,-2.1 10.99961,-5.10039 16.09961,-8.40039 4.2,-2.7 4.49961,-6.90001 2.59961,-11.5 -2.2,-5.4 -7.09961,-8 -11.09961,-11.5 -0.9,-0.8 -1.6,-2.4 -1.5,-3.5 0.5,-4 1.2,-7.89883 2,-11.79883 0.7,-3.6 1.60039,-7.10117 2.40039,-10.70117 h 1.09961 c 0.3,1.8 0.80078,3.7 0.80078,5.5 0.1,6.79999 1.2,13.40157 4,19.60156 3,6.49999 6.19883,12.89845 9.29883,19.39844 0.7,1.4 1.50039,3.5 3.40039,2.5 1.2,-0.6 2.30039,-2.49844 2.40039,-3.89844 0.5,-6.79999 0.60078,-13.70157 0.80078,-20.60156 0,-0.7 0.0992,-1.3 0.19922,-2 0.3,0 0.60039,-0.0996 0.90039,-0.0996 0.2,1 0.59961,2.09961 0.59961,3.09961 0,3.99999 -0.80078,8.20078 0.19922,11.80078 3.2,11.19999 7.00078,22.19923 10.80078,33.19922 0.4,1.1 1.79922,1.90039 2.69922,2.90039 0.8,-1.2 2.10039,-2.2 2.40039,-3.5 1.4,-5.89999 2.50117,-11.79923 3.70117,-17.69922 l 2.39844,-11.70117 c 3.89999,4.29999 7.5,8.50078 11.5,12.30078 7.09999,6.69999 15.60001,11.10039 25,13.90039 6.89999,2 13.50118,4.69961 20.20117,7.09961 1.4,0.4 2.7,1 4,1.5 0.2,-1.8 0.5,-3.50078 0.5,-5.30078 0,-0.6 -0.7,-1.3 -1,-2 -3.1,-7.29999 -6.20078,-14.49884 -9.30078,-21.79883 -3.7,-8.69999 -9.3004,-16.10079 -16.90039,-21.80078 -3.8,-2.9 -7.89922,-5.39883 -12.19922,-8.29883 1,-0.4 1.49961,-0.70078 2.09961,-0.80078 3.6,-0.8 7.20117,-1.59961 10.70117,-2.59961 0.9,-0.3 2.29883,-1.10117 2.29883,-1.70117 0,-1 -0.79961,-2.29883 -1.59961,-2.79883 -7.39999,-4.2 -14.9004,-8.30039 -22.40039,-12.40039 -1,-0.5 -1.69961,-1.39961 -2.59961,-2.09961 0.1,-0.2 0.3,-0.50117 0.5,-0.70117 1.9,1.1 3.69961,2.10156 5.59961,3.10156 4.79999,2.6 9.60079,4.89961 15.30078,4.59961 3.3,-0.2 4.99922,-2.60117 4.19922,-5.70117 -1,-3.8 -3.69883,-6.09844 -6.79883,-7.89844 -2.9,-1.7 -6.00078,-2.9 -8.30078,-4 0.8,-2.3 1.50039,-4.30078 2.40039,-6.80078 3.7,0.4 8.10001,1.00078 12.5,1.30078 1.4,0.1 3.09961,-0.10039 4.09961,-0.90039 0.7,-0.5 0.70078,-2.4 0.30078,-3.5 -1.3,-3.6 -2.50078,-7.2 -4.30078,-10.5 -2.4,-4.39999 -5.29922,-8.59961 -8.19922,-13.09961 2.4,-1 4.79961,-1.90039 7.09961,-2.90039 3.4,-1.5 6.99922,-2.90078 10.19922,-4.80078 2.5,-1.5 2.30039,-2.69922 -0.0996,-4.19922 -2.1,-1.4 -4.09922,-2.80117 -6.19922,-4.20117 -4.99999,-3.3 -10,-6.69844 -14,-9.39844 0,-3.3 0.59883,-5.9 -0.20117,-8 -0.8,-2.1 -2.89922,-3.9 -4.69922,-5.5 -1.9,-1.6 -4.10039,-2.90117 -6.90039,-4.70117 6.49999,0.7 11.89961,0.001 17.09961,-2.29883 1.9,-0.8 3.69961,-1.80039 3.59961,-4.40039 0,-2.5 -1.2,-4.20078 -3.5,-5.30078 -5.4,-2.5 -10.79923,-3.90039 -16.69922,-2.40039 -1,0.2 -2.19922,0 -3.19922,0 2.7,-3.1 4.89883,-5.79844 7.29883,-8.39844 0.4,-0.5 1.39961,-1.00039 2.09961,-0.90039 1.8,0.2 3.60039,0.59961 5.40039,1.09961 2.6,0.7 4.40078,-0.30039 4.80078,-2.90039 0.7,-4 1.6,-8.09922 1.5,-12.19922 -0.1,-4.99999 -1.00078,-10.09961 -1.80078,-15.09961 -0.4,-2.5 0.20117,-3.30117 2.70117,-2.70117 2.4,0.5 4.79883,0.99961 7.29883,1.09961 8.69999,0.4 17.00001,-0.99922 25,-4.69922 8.99999,-4.2 16.59962,-10.20001 23.59961,-17 1.8,-1.7 0.90117,-3.19922 -0.79883,-4.19922 -0.9,-0.5 -2.09961,-0.50039 -3.09961,-0.90039 -5.49999,-2 -11.10157,-4 -16.60156,-6 0.1,-0.6 0.10117,-1.10117 0.20117,-1.70117 3.9,-0.3 7.79961,-0.29961 11.59961,-1.09961 2.5,-0.5 5.39961,-1.69961 7.09961,-3.59961 1.6,-1.9 3.00039,-2.79961 5.40039,-2.59961 3.8,0.4 7.2,-0.49961 10.5,-2.59961 2.3,-1.5 5.10078,-2.60078 7.80078,-2.80078 C 624.20077,286.6 634,270.40077 632,255.80078 c -0.2,-1.4 0.3,-3.20039 1,-4.40039 3.8,-6.49999 6.39922,-13.2004 3.69922,-20.90039 -1.7,-4.8 -3.39883,-9.60079 -5.29883,-14.30078 -0.9,-2.3 -0.2,-3.29844 1.5,-4.89844 4.4,-4.09999 8.99961,-8.2 12.59961,-13 4.1,-5.29999 7.20039,-11.50118 10.90039,-17.20117 1.4,-2.2 2.89922,-4.39883 1.69922,-7.29883 -1.3,-0.2 -2.69961,-0.30039 -4.09961,-0.40039 -0.4,-1.1 -0.60039,-2.00039 -0.90039,-2.90039 -1.2,-3.8 -1.29961,-7.39961 0.40039,-11.09961 2.8,-6.19999 4.1,-12.79962 3.5,-19.59961 -0.5,-5.99999 -2.39922,-11.20117 -8.19922,-14.20117 -2.5,-1.3 -4.90117,-2.69883 -7.20117,-4.29883 -1.8,-1.2 -3.3,-2.80156 -5,-4.10156 -3.8,-2.9 -7.49883,-3.39961 -10.79883,-1.09961 -1.5,1 -2.50039,2.59961 -3.90039,4.09961 -1,-1.1 -1.89961,-1.89844 -2.59961,-2.89844 -2.5,-3.5 -5.7,-4.90039 -10,-4.90039 -3.6,0 -7.30039,-0.60117 -10.90039,-1.20117 -4.35,-0.75 -8.7,-2.06094 -13.00781,-1.74219 z m 3.19531,4.75586 c 2.9625,0.2875 5.9625,1.1875 8.8125,2.1875 0.8,0.3 1.19961,1.9 1.59961,3 0.5,1.4 0.79922,2.90039 1.19922,4.40039 0.3,-0.1 0.60039,-0.10117 0.90039,-0.20117 V 118 c 2.8,-0.2 5.30117,-0.5 7.70117,-0.5 4.4,0.1 9.19961,4.89961 9.09961,9.09961 0,0.7 -1.3,1.70078 -2,1.80078 -3.9,0.4 -7.80118,0.69883 -11.70117,0.79883 -3.6,0.1 -4.29883,0.80039 -3.79883,4.40039 0.3,2 0.49922,3.90078 0.69922,5.80078 0,0.2 -0.19961,0.40039 -0.59961,1.40039 -2,-2.8 -3.79961,-5 -5.59961,-7.5 -2.1,-3 -5.00117,-4.60039 -8.70117,-4.90039 -2.7,-0.2 -5.39844,-0.60039 -7.89844,-1.40039 -3.4,-1.2 -5.90117,0.20078 -8.20117,2.30078 -1.3,1.2 -2.39883,2.69961 -3.79883,3.59961 -1.6,1 -3.90078,2.5 -5.30078,2 -1.5,-0.5 -2.90039,-2.90117 -3.40039,-4.70117 -1.3,-5 2.60079,-9.99883 7.80078,-10.79883 5,-0.7 9.79961,-1.10117 14.59961,-3.70117 2.7,-1.45 5.62539,-1.77383 8.58789,-1.48633 z m 41.19336,5.26758 c 1.65,-0.26719 3.69414,1.19531 5.11914,2.32031 3.1,2.2 5.89883,4.79922 8.79883,7.19922 0.7,0.5 1.40117,1.20039 2.20117,1.40039 4.5,0.9 5.59883,3.9 5.29883,8 -0.5,5.69999 -0.89844,11.39962 -1.39844,17.09961 -0.1,1.1 -0.7,2.09922 -1,3.19922 -0.3,-0.1 -0.50117,-0.0992 -0.70117,-0.19922 -0.4,-3.2 -0.50039,-6.49961 -1.40039,-9.59961 -1.7,-6.59999 -6.29962,-10.40078 -13.09961,-11.30078 -4.8,-0.7 -7.09883,-4.69922 -8.29883,-8.19922 -0.8,-2.5 1.1,-6.6 3,-9 0.425,-0.55 0.93047,-0.83086 1.48047,-0.91992 z m -78.98047,6.82031 c 2,3.6 4.1,7.09922 6,10.69922 0.2,0.4 0.29922,0.90078 0.19922,1.30078 -1.1,5.3 -2.20039,10.59923 -3.40039,16.19922 L 551.5,153.90039 c 0.9,2.3 1.6,4.19961 2.5,6.59961 -1.4,-0.5 -2.40039,-0.79922 -3.40039,-1.19922 L 550,159.90039 c 3.3,3.9 6.50039,7.89961 9.90039,12.09961 -0.6,0.5 -1.20117,1.00078 -2.20117,1.80078 3.89999,2.4 7.60039,4.79961 11.40039,7.09961 l -0.29883,0.90039 c -1.9,-0.2 -3.90117,-0.001 -5.70117,-0.70117 -4.8,-1.7 -9.59961,-3.60039 -14.09961,-5.90039 -4.4,-2.3 -5.9,-6.59922 -6,-11.19922 -0.1,-5.89999 -0.30078,-11.6004 -1.80078,-17.40039 -0.6,-2.6 0.10078,-6 1.30078,-8.5 1.9,-4.1 4.69961,-7.79961 7.09961,-11.59961 0.4,-0.1 0.80117,-0.0992 1.20117,-0.19922 z m -17.5,1.69922 c 1,3.7 2.19844,7.3 2.89844,11 0.8,4.9 1.80117,9.90079 1.70117,14.80078 -0.1,5.2 -1.40039,10.40001 -2.40039,15.5 -0.1,0.8 -1.09922,1.49922 -1.69922,2.19922 l -0.90039,-0.30078 c 0.6,-14.29999 -4.8996,-28.49923 0.40039,-43.19922 z M 529,129.40039 c -3.3,14.29999 1,28.60041 0.5,42.90039 -0.6,0.1 -1.09961,0.3 -1.59961,0.5 -0.9,-1.7 -1.69961,-3.5 -2.59961,-5 -1.7,-3.1 -2.90117,-6.70117 -5.20117,-9.20117 -2.8,-3.1 -1.69922,-6.09922 -1.19922,-9.19922 1.2,-7.69999 5.29961,-14.00001 10.09961,-20 z m 47.92578,0.43164 c 0.6625,0.0187 1.32461,0.16875 1.97461,0.46875 1.7,0.8 2.89922,3.49961 3.69922,5.59961 1.3,3.6 2.20078,7.49883 3.30078,11.29883 0.4,-0.1 0.69961,-0.0992 1.09961,-0.19922 -0.7,-4.2 -1.39922,-8.3004 -2.19922,-12.90039 1.2,0.6 2.09922,1 3.19922,1.5 -0.2,-1.3 -0.30039,-2.19961 -0.40039,-3.59961 4.39999,1.2 6.6,4.29922 8.5,7.69922 7.29999,13.09999 5.50116,25.60079 -2.29883,37.80078 -0.7,1.1 -1.50039,2.19961 -2.90039,3.09961 1,-5.69999 1.90039,-11.39962 2.90039,-17.09961 -0.3,-0.1 -0.60039,-0.0992 -0.90039,-0.19922 -3,5.1 -1.3004,12.59922 -8.40039,16.19922 -1.2,-6.99999 -2.30039,-14.00001 -3.40039,-21 -0.5,0.1 -0.90039,0.0992 -1.40039,0.19922 0,1.9 0.002,3.80039 0.10156,5.90039 0.1,3.2 0.5,6.50117 0.5,9.70117 0,0.8 -1.00156,1.69961 -1.60156,2.59961 -0.3,-0.2 -0.59844,-0.3 -0.89844,-0.5 -0.1,1.5 -0.20039,2.99961 -0.40039,5.09961 -3.1,-2.4 -6,-4.40078 -8.5,-6.80078 -3.3,-3.2 -6.20078,-6.6 -9.30078,-10 -0.6,-0.6 -1.09922,-1.49883 -1.19922,-2.29883 -0.7,-6.29999 -2.59961,-12.6004 -0.59961,-18.90039 0.5,-1.6 2.19922,-3.59961 3.69922,-4.09961 4,-1.3 7.10078,-3.70117 9.80078,-6.70117 1.65,-1.8 3.6375,-2.92344 5.625,-2.86719 z M 617.5,131.59961 c 2.5,0.2 5.29922,1.30039 7.19922,2.90039 3.2,2.6 6.00078,5.00078 10.30078,6.30078 9.89999,3 11.20039,13.59884 7.90039,19.79883 -0.3,0.6 -0.70078,1.10039 -0.80078,1.40039 -3.4,-2.2 -6.8,-3.50039 -9,-5.90039 -2.2,-2.3 -3.19883,-5.59961 -4.79883,-8.59961 -1.2,0.3 -3.00078,0.8 -5.30078,1.5 0.6,-2.6 1,-4.29961 1.5,-6.59961 -1.7,1 -2.80078,1.49883 -3.80078,2.29883 -2.1,1.6 -3.9,2.10117 -6.5,0.70117 -2.6,-1.5 -3.89961,0.70039 -4.59961,2.90039 -1.2,3.9 -2.3,7.89883 -3.5,11.79883 -0.5,1.4 -1.19961,2.70117 -2.09961,4.70117 0.3,-7.79999 0.60078,-14.80079 0.80078,-21.80078 0.1,-1.9 -0.30156,-3.90078 -0.60156,-5.80078 -0.5,-3.2 0.30039,-4.2 3.40039,-4.5 3.3,-0.3 6.60039,-1.29961 9.90039,-1.09961 z m -531.900391,3.09961 c 6.099994,0 12.200788,-0.1 18.300781,0 2.5,0 5.00039,0.10078 7.40039,0.80078 3.3,0.9 3.69961,4.10078 4.09961,6.80078 1.1,6.99999 -1.50118,13.19923 -5.70117,18.69922 -0.4,0.6 -1.19844,1 -1.89844,1 -5.99999,0.1 -12.000005,0 -17.999999,0 -0.299999,0 -0.500392,-0.29961 -1.90039,-1.09961 C 93.600385,157.40039 98.600005,154.3 104,151 c -2,-0.5 -4.099611,-0.8 -6.099609,-1.5 -2.099998,-0.6 -4.400002,-1.2 -6,-2.5 -1.599999,-1.3 -2.600392,-3.39922 -3.900391,-5.19922 2.699997,-0.4 5.800784,-0.90078 8.800781,-1.30078 0.1,-0.3 0.09922,-0.60039 0.199219,-0.90039 -4.799995,-1.4 -9.500786,-2.79922 -14.300781,-4.19922 v -0.5 c 0.899999,0 1.900391,-0.20117 2.90039,-0.20117 z M 72.900391,135.625 c 1.249998,-0.075 2.350391,0.0242 2.90039,0.57422 2.199998,2.2 3.599611,5.5 4.59961,8.5 1.599998,4.69999 1.399608,9.60039 0.09961,14.40039 -0.5,1.8 -1.100393,3.00117 -3.400391,3.20117 -4.999995,0.4 -9.900005,1.29961 -15.5,2.09961 0.8,-9.69999 -1.599613,-17.90079 -5.599609,-26.30078 4.599995,-0.7 8.899614,-1.5 13.099609,-2 1.149999,-0.15 2.550783,-0.39961 3.800782,-0.47461 z m 44.298829,0.875 c 4.39999,0.6 8.5,0.79922 12.5,1.69922 5.39999,1.1 10.7,2.70156 16,4.10156 2.3,0.5 3.30039,1.89922 3.90039,4.19922 1.6,6.09999 0.40078,11.70079 -2.19922,17.30078 -1.4,2.8 -3.39961,3.49961 -6.09961,3.09961 -6.99999,-1 -13.90079,-1.80078 -20.80078,-2.80078 -2.3,-0.4 -4.50039,-0.99961 -6.90039,-1.59961 7.39999,-11.79999 6.09961,-14.70001 3.59961,-26 z m 365.76562,7.76172 c 1.73438,-0.24844 3.38516,1.06406 5.03516,2.03906 2.8,1.7 5.80039,3.19844 8.90039,4.39844 3.8,1.5 5.09922,4.00117 4.19922,8.20117 -1.2,5.6 -4.79883,9.59883 -8.29883,13.79883 -1.5,1.9 -3.10117,3.60039 -4.70117,5.40039 -0.2,-0.2 -0.49883,-0.49922 -0.79883,-0.69922 0.9,-2.8 1.79883,-5.5 2.29883,-8 -1.9,1.3 -3.79922,2.59961 -6.19922,4.09961 -1,-3.9 -2,-7.30078 -3,-10.80078 -0.3,0 -0.60039,0.10156 -0.90039,0.10156 0.4,4.3 0.80078,8.69883 1.30078,13.29883 -0.7,0.2 -1.5,0.50078 -2.5,0.80078 0.2,1.1 0.49922,2.19922 0.69922,3.19922 -0.3,0.2 -0.50078,0.39961 -0.80078,0.59961 -2.1,-2.2 -4.39844,-4.39922 -6.39844,-6.69922 -3.4,-4.1 -6.60078,-8.5004 -7.30078,-13.90039 -0.2,-1.7 0.80039,-3.79922 1.90039,-5.19922 0.5,-0.7 2.39883,-0.39961 4.29883,-0.59961 0.1,-0.1 0.70117,-0.8 1.70117,-2 0.6,3.5 1,6.39883 1.5,9.29883 h 0.79883 c 0,-2.6 0.1,-5.19883 0,-7.79883 -0.2,-4.69999 3.7,-6.40117 6.5,-8.70117 0.6,-0.5 1.1875,-0.75508 1.76562,-0.83789 z m -440.765621,2.4375 c 3.899996,0.1 5.501173,2.50078 6.701172,5.30078 1.899998,4.4 2.299216,8.89922 0.199218,13.19922 -0.499999,0 -0.898828,0.10156 -1.298828,0.10156 -1.799998,-5.99999 -3.701564,-12.10157 -5.601562,-18.60156 z m 572.765621,2.90625 c 0.64219,0.12031 1.46016,0.37031 2.53516,0.69531 1.8,0.5 3.69961,1.09844 5.59961,1.39844 3.1,0.5 4.79961,2.1 6.09961,5 0.9,1.9 3.50156,3.60078 5.60156,4.30078 2.3,0.8 3.09922,1.79961 3.19922,4.09961 0.2,7.49999 -1.89923,10.40117 -9.19922,12.20117 -7.19999,1.8 -13.00039,5.49962 -17.40039,11.59961 -2.2,3 -2.19961,2.90039 -7.09961,2.40039 6.1,-5.49999 11.69883,-10.60118 17.29883,-15.70117 -6.99999,1.9 -10.59884,9.7 -19.29883,10 1.1,-1.6 1.79844,-2.50039 2.39844,-3.40039 -0.1,-0.2 -0.29844,-0.39961 -0.39844,-0.59961 -2.6,1.4 -5.30039,2.80117 -7.90039,4.20117 -0.2,-0.2 -0.39961,-0.3 -0.59961,-0.5 0.8,-1.3 1.49844,-2.70039 2.39844,-3.90039 6.49999,-8.29999 11.00156,-17.7004 13.60156,-27.90039 0.9,-3.45 1.2375,-4.25547 3.16406,-3.89453 z m -99.85156,13.44336 c 2.53594,-0.26719 3.51133,1.02656 4.48633,4.85156 0.9,3.8 2.69961,6.89922 6.09961,9.19922 4.49999,3 6.40078,8.99961 4.80078,13.09961 -2,5.09999 -10.29922,9.60156 -15.69922,8.10156 -5.49999,-1.6 -11,-3.6 -16.5,-5.5 -0.7,-0.3 -1.20078,-0.80117 -1.80078,-1.20117 1.3,-6.59999 7.10078,-4.1 10.80078,-5.5 2,-0.8 4.39961,-0.7 6.59961,-1.5 h -18.5 c 2.5,-2.1 4.6,-3.79883 7,-5.79883 -4.39999,0.7 -8.59961,1.49961 -13.59961,2.59961 1.4,-1.6 2.19922,-2.7 3.19922,-3.5 6.29999,-5.19999 11.80001,-11.59961 20,-14.09961 1.25,-0.4 2.26797,-0.66289 3.11328,-0.75195 z m -416.749999,2.93164 c 8.873429,0.1125 17.761719,4.89532 21.136719,12.32031 0.9,2.1 0.89922,4.79922 0.69922,7.19922 0,1 -1.69922,2.70078 -2.69922,2.80078 -5.99999,0.6 -12.00001,0.79961 -18,1.09961 C 99.3,188.90039 99.2,188.5 99,188 c 2.2,-2.2 4.4,-4.30078 7,-6.80078 -4.7,-0.4 -9.699224,-0.9 -15.199219,-1.5 1.599999,-2.7 4.099612,-3.49961 6.59961,-4.09961 2.499997,-0.5 4.999999,-0.69961 7.499999,-1.09961 0,-0.3 0.0996,-0.69961 0.0996,-1.09961 -4.5,-0.7 -9.099224,-1.3 -14.199219,-2 0.899999,-1 1.400001,-1.60078 2,-2.30078 -1.099999,-0.6 -2.001563,-0.99961 -3.101562,-1.59961 2.749997,-1.075 5.706253,-1.55703 8.664062,-1.51953 z M 75.300781,167.5 c 1.299999,-0.1 3.198438,0.80039 3.898438,1.90039 3.699996,5.99999 4.700389,12.49884 2.90039,19.29883 -0.199999,0.9 -0.899219,2.3 -1.699218,2.5 -3.399997,1 -6.901176,1.70156 -10.701172,2.60156 -0.3,-4.49999 -0.09844,-8.20117 -0.898438,-11.70117 -0.699999,-3.5 -2.301173,-6.99883 -3.701172,-10.29883 -0.799999,-2 -0.500388,-2.80156 1.59961,-3.10156 2.899997,-0.4 5.701565,-1.09922 8.601562,-1.19922 z m 41.999999,0.5 c 3.3,0.2 6.39883,0.29961 9.29883,0.59961 4.2,0.7 8.39961,1.8 12.59961,2.5 1.7,0.3 2.30078,1.40117 1.80078,2.70117 -0.4,1.1 -1.5,2.29961 -2.5,2.59961 -1.6,0.5 -3.60039,-0.19961 -3.90039,2.40039 0,0.2 -1.3,0.5 -2,0.5 -1.5,0.1 -2.89961,0.1 -4.59961,0.5 5.19999,1.4 10.00039,2.99923 9.40039,9.69922 -4.79999,-0.2 -9.60078,-0.39961 -13.80078,-0.59961 -0.2,-3.8 0.40039,-7.50078 -0.59961,-10.80078 -1,-3.4 -3.49922,-6.29961 -5.69922,-10.09961 z m 526.83594,0.69922 c 1.6625,0 3.2625,0.80039 4.0625,2.40039 1.3,2.7 0.70117,4.2 -2.29883,4.5 -2.5,0.3 -5,0.0996 -8,0.0996 0.8,-1.9 1.09883,-3.29961 1.79883,-4.59961 1.05,-1.6 2.775,-2.40039 4.4375,-2.40039 z m -438.03711,1.20117 c 38.89996,25.49998 71.20003,57.20043 97,95.40039 L 302,266.40039 c -4.4,-4.39999 -8.79961,-8.7 -13.09961,-13 -5.19999,-5.29999 -10.20118,-10.80079 -15.70117,-15.80078 -7.69999,-7.09999 -15.40001,-13.99962 -23.5,-20.59961 -8.49999,-6.89999 -17.19962,-13.50079 -26.09961,-19.80078 -5,-3.5 -10.6004,-6.29844 -15.90039,-9.39844 l -2.69922,-1.5 c 0.1,-0.3 0.20078,-0.7 0.30078,-1 1.7,0.4 3.39961,0.79883 5.59961,1.29883 C 206.60039,181.89961 200.1,181.1 196.5,176.5 c 0.1,-0.2 0.30039,-0.49922 0.40039,-0.69922 5.5,1.4 11.00001,2.9 17,4.5 -4.49999,-2.8 -8.70118,-5.30117 -12.70117,-7.70117 1.3,-2.6 4.80039,2.00078 4.90039,-2.69922 z m 245.83398,0.0664 c 1.41094,-0.0922 2.99063,0.0586 4.76563,0.43359 8.39999,1.8 14.50118,6.9004 19.70117,13.90039 -4.59999,-1 -9.30039,-2 -13.90039,-3 l -0.30078,0.59961 c 1.7,1 3.40039,1.90039 5.90039,3.40039 -2.1,0.7 -3.39961,0.99844 -4.59961,1.39844 l -0.30078,0.90039 c 2.2,0.7 4.4,1.5 7.5,2.5 l -8,3 c 0,0.1 0.10156,0.3 0.10156,0.5 2.4,-0.2 4.89844,-0.49922 7.39844,-0.69922 0.2,0.2 0.30039,0.49922 0.40039,0.69922 -1.3,0.9 -2.49883,1.8 -3.79883,2.5 -4.79999,2.4 -9.60157,5 -14.60156,7 -4.1,1.7 -7.79961,0.2 -10.09961,-3.5 -3.3,-5.4 -4.79961,-10.89883 -1.09961,-16.79883 0.9,-1.5 1.59922,-3.3 2.19922,-5 1.8,-5.09999 4.50157,-7.55742 8.73437,-7.83398 z m 87.4668,3.33398 c 7.09999,4.1 13.69884,7.89922 20.29883,11.69922 -2.7,3.5 -5.69961,3.90078 -9.09961,1.80078 -2.4,-1.6 -4.79883,-1.30039 -7.29883,0.0996 -2.1,1.2 -4.5,2.09922 -7,3.19922 -1.1,-6.59999 -2.60038,-12.79883 3.09961,-16.79883 z M 163.09961,177 c 9.19999,3.5 17.70001,6.40078 26,9.80078 6.49999,2.6 7.89961,5.59923 6.09961,12.19922 -3.4,12.89999 -6.99961,25.79923 -10.59961,38.69922 -1,3.4 -1.69922,3.60039 -4.19922,0.90039 -5.99999,-6.39999 -12.10118,-12.59923 -17.70117,-19.19922 -3.8,-4.49999 -3.99883,-10.10118 -3.29883,-15.70117 0.6,-5.3 0.89961,-10.59883 1.59961,-15.79883 0.4,-3.4 1.29961,-6.70039 2.09961,-10.90039 z m -113.707032,0.64844 c 0.270312,-0.0609 0.607813,-0.0492 1.007813,0.0508 3.799996,1.1 6.19922,3.90039 7.699218,7.40039 1.399999,3.3 2.199998,6.89961 -0.5,10.09961 -0.199999,0.2 -0.498828,0.40156 -0.798828,0.60156 -0.1,0.1 -0.401171,0.0996 -0.201172,0.0996 -2.699997,-5.49999 -5.199221,-10.69961 -7.699218,-16.09961 -0.525,-1.125 -0.31875,-1.96953 0.492187,-2.15234 z m 598.207032,1.45117 c 0.1,0.4 0.10117,0.69961 0.20117,1.09961 -9.39999,6.19999 -18.90001,12.3 -28.5,18.5 0.7,-1.7 1.39961,-3.4 2.09961,-5 -0.2,-0.2 -0.50117,-0.39961 -0.70117,-0.59961 L 610.80078,203 c -1.5,-2.9 -0.30156,-5.00078 0.89844,-6.80078 5.49999,-8.39999 13.40118,-13.39844 23.20117,-15.39844 4.2,-0.8 8.49922,-1.10117 12.69922,-1.70117 z m 1.09961,3.5 c 0.2,0.3 0.50117,0.7 0.70117,1 -4.69999,8.19999 -10.20118,15.59962 -17.20117,22.09961 -3.2,3 -5.29844,3.40078 -8.89844,1.80078 0.6,-0.8 1.1,-1.50078 2,-2.80078 -1.8,0.1 -3.1,0.20078 -5.5,0.30078 2.4,-1.8 4.09883,-2.99922 6.29883,-4.69922 -0.8,-0.4 -1.39961,-0.8 -2.59961,-1.5 8.59999,-5.49999 16.89923,-10.90118 25.19922,-16.20117 z m -76.29883,3.70117 c 2.8,0.7 5.49961,1.09844 8.09961,1.89844 4.5,1.4 8.69961,3.20039 13.59961,2.90039 3.1,-0.2 6.10039,1.4 7.40039,4.5 1.6,3.8 2.90039,7.80078 3.90039,11.80078 0.5,2.1 -0.29961,4.20039 -3.09961,4.40039 -3.2,0.2 -6.2,-1.50039 -6.5,-3.90039 -0.9,-5.79999 -6.40039,-9.09961 -10.90039,-9.09961 -2.7,0 -5.39961,-0.5 -8.09961,-1 -1.4,-0.2 -2.7,-1.20117 -4,-1.20117 -3.3,-0.1 -6.60039,0.10039 -9.90039,0.40039 -1.7,0.2 -3.10117,0.49922 -4.20117,-1.30078 -1.2,-1.9 -0.59922,-2.99844 0.80078,-4.39844 3.6,-3.6 7.9004,-4.6 12.90039,-5 z m -142.20117,4.5 c 0.4,0.2 0.70156,0.39961 1.10156,0.59961 -0.9,2.4 -2.10117,4.69961 -2.70117,7.09961 -0.7,2.7 -1.09922,5.59961 -1.69922,8.59961 -2.3,-0.2 -2.5,1.2 -2,3.5 0.2,0.9 -0.30039,2.8 -0.90039,3 -2,0.7 -2.70078,-0.99961 -2.80078,-2.59961 -0.5,-5.79999 1.30039,-10.9004 4.90039,-15.40039 1.3,-1.6 2.69961,-3.19883 4.09961,-4.79883 z m 116.80469,0.35742 c 4.02089,0.14356 9.6207,4.96758 9.0957,8.64258 0,0.2 3.9e-4,0.39961 -0.0996,0.59961 -3.2,4 -6.39922,8.1 -9.69922,12 -0.3,0.4 -1.90078,0.49961 -2.30078,0.0996 -6.39999,-5.49999 -13.4004,-6.00078 -20.90039,-2.80078 -0.2,0 -0.39961,-0.0992 -0.59961,-0.19922 -0.1,-7.49999 6.69922,-12.49922 11.69922,-14.19922 3.79999,-1.3 7.50117,-2.50039 11.20117,-3.90039 0.4875,-0.1875 1.0291,-0.26269 1.60352,-0.24219 z m -422.30469,1.44141 c 7.39999,0.4 13.90001,0.69961 20.5,1.09961 0.6,0.1 1.60078,0.80039 1.80078,1.40039 2.2,6.39999 4.39922,12.80118 6.69922,19.70117 -2.9,0 -5.49961,0.1 -8.09961,0 -4,-0.2 -8,-0.50117 -12,-0.70117 -2.4,-0.2 -4.09883,-0.19883 -3.29883,-3.79883 1.2,-5.19999 -0.001,-10.3 -3.70117,-14.5 -0.6,-0.7 -1.00039,-1.60117 -1.90039,-3.20117 z m -7.89844,1.20117 c 4.5,-0.2 7.59922,2.99922 8.69922,6.69922 1.1,3.8 0.49922,8.09961 0.19922,12.09961 -0.1,0.8 -2.2,1.89961 -3.5,2.09961 -5.2,0.9 -10.49923,1.40156 -15.69922,2.10156 -0.5,0.1 -1.1,-0.10039 -1.5,-0.40039 -1.3,-1 -2.5,-2.10039 -4,-3.40039 3.3,-3.9 8.9,-3.79922 13.5,-5.69922 0,-0.5 -0.0996,-0.90039 -0.0996,-1.40039 -2.4,0 -5.00117,-0.50117 -7.20117,0.29883 -2.6,0.7 -4.89961,0.50156 -7.09961,-0.89844 -0.7,-0.4 -1.7,-1.60117 -1.500001,-2.20117 0.2,-0.9 1.199611,-1.89883 2.099611,-2.29883 1.2,-0.6 2.7,-0.7 4,-1 0,-0.3 0.10156,-0.60039 0.10156,-0.90039 -5.499993,-0.5 -10.900785,-1.10117 -16.30078,-1.70117 0,-0.4 -0.09961,-0.69961 -0.09961,-1.09961 0.499999,-0.3 1,-0.90039 1.5,-0.90039 8.899991,-0.5 17.900399,-1.09844 26.900389,-1.39844 z m 375,0.19922 c 1.5,0.1 2.19844,0.10078 2.89844,0.30078 8.59999,2.4 15.40157,7.80001 21.10156,14.5 0.9,1 0.39844,3.59922 -0.10156,5.19922 -0.3,1 -1.69844,1.80039 -2.89844,2.90039 -1.9,-2.4 -3.60039,-4.6 -5.40039,-7 -1.3,2.3 4.79921,4.9 -0.80078,6.5 1.3,1.7 1.10078,3.09883 -0.69922,4.79883 -2.5,2.3 -4.4,5.30039 -7,7.40039 -4.3,3.3 -7.9,2.20117 -10,-2.79883 -0.8,-1.8 -1.4,-3.70156 -1.5,-5.60156 -0.4,-6.79999 -0.60078,-13.70001 -0.80078,-20.5 0,-0.5 0.30117,-1.09961 0.70117,-2.59961 2.5,4.39999 4.69844,8.10039 6.89844,11.90039 0.3,-0.2 0.60039,-0.3 0.90039,-0.5 -1.5,-3.5 -2.99883,-6.89961 -4.79883,-11.09961 2,0.7 3.3,1.1 4.5,1.5 0.2,-0.1 0.3,-0.30039 0.5,-0.40039 -1,-1.3 -2,-2.5 -3.5,-4.5 z m -16.70117,1.19922 c 0.4,0.3 0.69961,0.50117 1.09961,0.70117 -1.3,2.5 -2.49883,5 -3.79883,7.5 -1.4,2.5 -3,4.89883 -4.5,7.29883 0.2,0.2 0.49922,0.3 0.69922,0.5 2.9,-3.5 5.90039,-7.09883 9.40039,-11.29883 0.5,3.1 0.79961,5.19883 1.09961,7.29883 H 480 c 0.7,-2.9 1.39961,-5.7 2.09961,-8.5 h 0.70117 c 0.4,1.3 0.9,2.50078 1,3.80078 0.4,5.29999 1.59922,10.8004 0.69922,15.90039 -0.7,3.8 -3.70078,7.49961 -6.30078,10.59961 -2,2.3 -7.19844,1.39922 -9.39844,-1.30078 -2.5,-3.2 -5.2,-5.99961 -9,-7.59961 -5.09999,-2.1 -5.00156,-8.09961 -1.10156,-13.09961 4.29999,-5.49999 9.9004,-9.40078 16.40039,-11.80078 z m -41,0.20117 c 2.5,4.4 5.7,8.29922 5,13.69922 -0.5,3.7 -1.39961,4.2 -5.59961,3 0.4,-1.3 0.8,-2.39961 1,-3.59961 0.2,-0.6 0.39961,-1.50078 0.0996,-1.80078 -3.1,-3.7 0,-7.49883 -0.5,-11.29883 z m -353.699219,1.29883 c 1.299998,0.1 2.898829,1.80156 3.798828,3.10156 3.999996,6.29999 5.50078,13.30001 4.800781,21 -3.099997,1.1 -5.899613,2.09922 -9.099609,3.19922 -0.6,-9.29999 -1.200788,-18.20079 -7.800782,-25.80078 3.299997,-0.7 5.800784,-1.6 8.300782,-1.5 z m 488.156249,1.83203 c 2.04375,0.025 4.04375,0.46914 5.84375,1.36914 3.6,1.9 7.29883,2.79883 11.29883,2.29883 3.1,-0.4 4.70156,1.60156 6.10156,3.60156 0.6,0.8 0.4,3.4 0,3.5 -1.9,0.6 -4.00039,0.99922 -5.90039,0.69922 -1.8,-0.3 -3.39961,-1.49922 -5.09961,-2.19922 -4.09999,-1.7 -8.00039,-0.50078 -11.90039,1.19922 -0.7,0.4 -1.69961,1.00078 -2.09961,0.80078 -4.09999,-2.6 -8.70157,-1.70117 -13.60156,-1.20117 2.7,-6.44999 9.22618,-10.14336 15.35742,-10.06836 z M 60.398438,204.4043 c 2.20781,0.33281 4.401173,1.94492 6.201171,4.79492 3.399997,5.19999 4.000779,10.60156 1.800782,13.60156 L 58.199219,204.5 c 0.724999,-0.175 1.463282,-0.20664 2.199219,-0.0957 z m 162.501952,0.69531 c 2.1,1.2 4.30039,2.29961 6.40039,3.59961 1.2,0.7 2.19844,1.7 3.39844,2.5 6.09999,4.09999 7.10078,6.80157 5.30078,14.10156 -3.9,15.99999 -7.90079,32.00002 -11.80078,48 -0.5,2 -0.9,3.89922 -1.5,6.69922 -5,-4.4 -9.19961,-7.90079 -13.09961,-11.80078 -1.1,-1.1 -1.49922,-3.59922 -1.19922,-5.19922 1.8,-9.59999 3.59922,-19.20079 5.69922,-28.80078 2.1,-9.49999 4.40078,-18.89962 6.80078,-29.09961 z m 224.38281,2.4668 c 1.02969,-0.0359 2.34258,0.0594 4.01758,0.23437 v 9.5 c -4.49999,0 -7.90078,-2.10156 -7.80078,-4.60156 0.15,-3.75 0.69414,-5.025 3.7832,-5.13281 z m 128.11914,2.07226 c 2.92266,-0.19219 5.80938,0.58594 7.79688,2.46094 2.1,2.1 3.90078,4.39961 5.80078,6.59961 1.8,2 1.10039,4.00039 -0.0996,5.90039 -1.3,1.9 -2.79961,1.10117 -4.59961,0.70117 -3,-0.7 -5.10078,-2.10078 -7.30078,-4.30078 -1.7,-1.7 -4.80039,-2.20078 -7.40039,-2.80078 -1.5,-0.4 -3.19961,-0.0996 -5.09961,-0.0996 1.0625,-5.125 6.03125,-8.14063 10.90234,-8.46094 z m 40.49805,0.0606 c 6.89999,0.9 11.8,5.9004 12.5,12.90039 0.3,2.3 0.0996,4.3 -2.40039,5.5 -1.5,0.7 -2.79961,1.99961 -4.09961,3.09961 0.1,0.2 0.30039,0.40156 0.40039,0.60156 1.8,-1 3.69961,-2.00078 5.09961,-2.80078 8.19999,6.69999 6.70038,13.39962 0.40039,20.09961 -2.7,-1.1 -5.50156,-1.99922 -8.10156,-3.19922 -0.7,-0.3 -1.4,-1.50039 -1.5,-2.40039 -0.2,-1.2 0.40039,-2.50078 0.40039,-3.80078 0.1,-6.99999 -0.29923,-7.5 -7.19922,-8.5 -0.3,0 -0.50078,-0.29844 -0.80078,-0.39844 0.5,-5.69999 -0.4004,-11.60078 -4.90039,-15.80078 1.1,-3.5 5.60118,-5.90078 10.20117,-5.30078 z m -85.16211,0.70117 c 4.1625,-0.275 8.36133,1.24922 10.36133,4.19922 0.4,0.6 0.80117,1.50117 0.70117,2.20117 -1,4.9 -2.10078,9.80001 -3.30078,15 -0.7,-0.3 -1.70078,-0.60039 -3.80078,-1.40039 1.2,2 2.00078,3.2 2.80078,4.5 L 537.19922,235.5 c -3.6,-1.6 -7.3,-3.20078 -11,-4.80078 0,0.2 -0.0992,0.3 -0.19922,0.5 5.49999,3.89999 11.09961,7.80117 16.59961,11.70117 -0.1,0.3 -0.3,0.60039 -0.5,0.90039 -2.6,-0.8 -5.09922,-1.50078 -7.69922,-2.30078 -0.1,0.2 -0.20078,0.49922 -0.30078,0.69922 3.6,2.2 7.20078,4.40039 11.30078,6.90039 -4.3,1 -7.90117,1.40078 -11.20117,2.80078 -2.9,1.3 -5.3,3.60039 -8,5.40039 -0.9,0.6 -1.99961,0.99922 -3.09961,1.19922 -0.7,0.1 -1.49922,-0.0992 -2.19922,-0.19922 -3.3,-0.4 -6.09961,-1.10039 -8.09961,-4.40039 -1.3,-2.2 -3.80039,-3.8 -5.90039,-5.5 -2.8,-2.2 -2.99961,-4.80039 -1.09961,-7.40039 2.7,-3.6 2.69883,-7.20079 1.29883,-11.30078 -1.1,-3.4 0.19961,-5.59883 3.59961,-6.79883 1.5,-0.5 2.90039,-1.20039 4.40039,-1.40039 2.8,-0.4 4.4,-2.1 5.5,-4.5 1.85,-4.25 5.97618,-6.32461 10.13867,-6.59961 z m 28.75586,0.57227 c 1.33633,0.007 2.68086,0.17734 4.00586,0.52734 -0.2,0.6 -0.29922,1.30078 -0.69922,1.80078 -3.4,4.2 -2.7,8.20001 0,12.5 2.4,3.7 4.09844,7.79922 3.89844,12.69922 -0.1,2.7 2.50039,5.69961 4.40039,8.09961 4.49999,5.79999 3.90039,9.29961 1.90039,15.09961 -0.2,0.6 -1.90039,1.40156 -2.40039,1.10156 -4.3,-2 -8.6004,-4.30156 -12.90039,-6.60156 -0.6,-0.3 -0.79844,-1.39961 -1.39844,-2.09961 -0.6,-0.7 -1.40156,-1.3 -2.10156,-2 -0.3,0 -0.7,0.0996 -1,0.0996 0.3,-5.1 0.60117,-10.19844 0.70117,-15.39844 -0.3,-0.1 -0.7,-0.20078 -1,-0.30078 -0.9,3.2 -1.90078,6.3 -2.80078,9.5 -5.5,-4.6 -6.39883,-10.80001 -7.29883,-17 -1.575,-10.14999 7.33907,-18.0793 16.69336,-18.02734 z m 33.56836,1.50195 c 1.3875,0.175 2.78672,0.77461 4.13672,1.22461 7.49999,2.6 10.90078,8.40079 9.80078,16.30078 -0.2,1.9 -1.09922,3.00078 -3.19922,2.80078 -2,-0.2 -4.50117,0.39844 -5.70117,-0.60156 -2.3,-1.9 -4.19961,-4.49961 -5.59961,-7.09961 -0.7,-1.4 0.30078,-3.59922 -0.19922,-5.19922 -0.7,-2.1 -2.10078,-3.99961 -3.30078,-6.09961 1.3,-1.25 2.675,-1.50117 4.0625,-1.32617 z m -471.20703,4.55469 c 7.4662,0.31308 16.89492,5.4211 20.04492,11.37109 2.2,4.3 0.60039,7.49961 -4.09961,8.59961 -5.79999,1.5 -11.50079,3.5 -17.30078,5 -2.2,0.6 -4.60039,0.50078 -7.40039,0.80078 0.1,-5.99999 6.50078,-4.70157 8.30078,-8.60156 -1.8,0.4 -3.40078,0.60156 -4.80078,1.10156 -3.1,1.1 -3.79922,-1.10156 -4.69922,-3.10156 -1.1,-2.4 1.29883,-2.29961 2.29883,-3.09961 0.9,-0.7 2.00078,-1.10039 3.30078,-1.90039 -7.09999,-1.9 -13.69923,-3.49922 -20.199219,-5.19922 0,-0.1 -0.101562,-0.3 -0.101562,-0.5 4.299991,-1 8.501171,-2.00039 12.701171,-2.90039 2.9,-0.6 5.90039,-0.90039 8.90039,-1.40039 0.9625,-0.1625 1.98809,-0.21465 3.05469,-0.16992 z M 432.75,217.23828 c 4.2,0.1375 8.40039,1.3125 12.65039,3.0625 3.7,1.5 7.6,3.1 11.5,4 4.3,1 5.79883,1.89922 6.79883,6.19922 0.3,1.4 0.60156,2.79922 0.60156,4.19922 0.1,4.49999 -1.10117,5.2 -5.20117,3.5 -8.69999,-3.7 -17.19962,-2.69961 -25.59961,0.90039 -3.2,1.4 -6.19961,3.40117 -9.59961,5.20117 -0.6,-2.7 -1.1,-5.30156 -1.5,-8.10156 -0.4,0.1 -0.80117,0.10156 -1.20117,0.10156 -0.3,2.1 -0.49883,4.19844 -0.79883,7.39844 -1.5,-2.2 -2.40039,-3.69961 -3.40039,-5.09961 -0.3,0 -0.7,0.0996 -1,0.0996 0,1.9 0.20039,3.90078 -0.0996,5.80078 -0.1,1 -1.00078,2.50078 -1.80078,2.80078 -5.99999,1.9 -10.20039,5.69923 -13.40039,11.19922 -5.2,-3.1 -8.49844,-7.50001 -8.89844,-13.5 -0.4,-5.19999 -1.30039,-10.90079 2.59961,-15.30078 1.8,-2 4.49961,-3.59844 7.09961,-4.39844 3.1,-1 6.70039,-0.80156 9.90039,-1.60156 3,-0.8 5.99922,-1.79883 8.69922,-3.29883 4.25,-2.4 8.45039,-3.29961 12.65039,-3.16211 z m -282.16211,0.38281 c 2.775,0.15938 6.3375,1.52969 7.3125,3.17969 5.69999,9.09999 14.0004,15.59845 22.40039,21.89844 1.7,1.3 3.29844,2.70117 4.89844,4.20117 l 20.10156,18.90039 c -0.2,0.3 -0.3,0.7 -0.5,1 -2.1,-0.4 -4.20039,-0.90039 -6.40039,-1.40039 4.1,3.4 8.09883,6.69961 12.29883,10.09961 -0.4,0.5 -0.89844,1.09922 -1.39844,1.69922 0.9,0.8 1.7,1.4 2.5,2 -0.1,0.2 -0.10117,0.50117 -0.20117,0.70117 L 206.5,279.30078 c -3.9,-0.4 -7,-1.20117 -9.5,-5.20117 -5.39999,-8.69999 -14.10079,-13.09922 -23.80078,-15.69922 -1.1,-0.3 -2.49844,-1.40039 -2.89844,-2.40039 -3.4,-9.69999 -10.50118,-15.30039 -20.20117,-17.90039 -5.2,-1.3 -5.19961,-1.39883 -5.09961,-6.79883 v -2.70117 c 3.9,-0.1 5.8,-2.1 6.5,-6 -1,-0.4 -2.19922,-0.59961 -3.19922,-1.09961 -0.7,-0.3 -1.70156,-1.00039 -1.60156,-1.40039 0.2,-0.8 0.8,-1.89922 1.5,-2.19922 0.625,-0.25 1.46367,-0.33242 2.38867,-0.2793 z m 417.68359,3.44727 c 3.59063,-0.1125 6.70352,0.95625 7.22852,2.53125 0.9,2.7 -2.20078,9.90039 -4.80078,10.90039 -2.1,-4.5 -4.09961,-8.60039 -6.09961,-12.90039 1.225,-0.325 2.475,-0.49375 3.67187,-0.53125 z M 92.5,223.09961 c 1.499999,-0.1 3.700001,2.10117 5,3.70117 5.09999,6.29999 6.20039,13.89923 5.40039,21.69922 -0.1,1.2 -1.70039,2.6 -2.90039,3.5 -1.599998,1.2 -3.399221,1.99961 -5.199219,3.09961 -1.199999,-5.3 -1.801564,-10.59883 -3.601562,-15.29883 -1.899998,-4.69999 -5.199613,-8.90157 -8.09961,-13.60156 2.999997,-1.1 6.100394,-2.79961 9.400391,-3.09961 z m 486.73242,5.53711 c 1.52344,0 2.4418,1.23828 2.9668,2.36328 1.3,3 2.10039,6.3 2.90039,9.5 0.2,0.5 -0.89961,1.50039 -1.59961,1.90039 -2.8,1.5 -5.7,2.9 -9,4.5 -1.4,-1.9 -3,-4.10117 -4.5,-6.20117 1.7,-4.6 9.2,-5.09962 7.5,-11.59961 0.65,-0.325 1.22461,-0.46289 1.73242,-0.46289 z m 11.49219,0.32617 c 0.725,0.0125 1.42461,0.1375 1.97461,0.4375 1.9,0.9 3.40039,2.49961 5.40039,4.09961 -3.4,3 -6,5.30039 -9,7.90039 -0.8,-3.3 -1.2,-5.99961 -2,-8.59961 -0.6,-1.9 -0.1,-3.10156 1.5,-3.60156 0.65,-0.15 1.4,-0.24883 2.125,-0.23633 z m -109.30273,4.28125 c 3.53417,-0.24805 6.25391,1.68164 10.3789,5.05664 4.1,3.5 7.7,7.59923 10,12.69922 0.8,1.7 2.49961,3.10039 4.09961,4.40039 2.7,2.2 4.90039,4.6 5.90039,8 0.8,2.7 1.99961,5.19883 3.09961,7.79883 2.7,6.19999 -0.80118,12.10078 -5.20117,15.30078 -2.2,1.6 -10.29961,0.7 -11.59961,-1.5 -0.7,-1.2 -0.0996,-3.4 -0.0996,-5 -0.5,-0.1 -2.80078,-0.29922 -2.80078,-0.69922 -0.1,-1.5 0.10039,-3.30156 0.90039,-4.60156 2,-3.3 4.30117,-6.29883 6.20117,-9.79883 -4.59999,1.6 -6.90039,5.79961 -9.90039,9.09961 -1.6,-1.2 -1.59961,-1.20001 -0.59961,-8.5 -0.8,0.9 -1.6,2.00078 -2.5,2.80078 -0.6,0.5 -1.50117,0.59844 -2.20117,0.89844 -0.2,-0.8 -0.89922,-1.69844 -0.69922,-2.39844 0.8,-2.8 1.90039,-5.40156 2.90039,-8.10156 -0.3,-0.1 -0.7,-0.3 -1,-0.5 -1.3,2.1 -2.7,4.10039 -4.5,6.90039 -2.4,-10.09999 -8.40001,-16.59883 -17,-21.29883 1.5,-3.5 3.99844,-5.90156 6.89844,-7.60156 3.1875,-1.875 5.60215,-2.80625 7.72266,-2.95508 z M 503.69922,234 c -1,2.9 -1.59922,4.49922 -2.19922,6.69922 -1.8,-1.5 -3.29922,-2.59922 -4.69922,-3.69922 0,-0.4 0.0996,-0.79922 0.0996,-1.19922 2,-0.5 3.99883,-1.10078 6.79883,-1.80078 z m 109.07422,0.082 c 1.92656,-0.0703 3.05117,0.94297 2.82617,3.41797 -0.3,3.6 -1.30039,7.50078 -2.90039,10.80078 -3.3,6.79999 -9.39884,10.69922 -16.29883,13.69922 -2,-3.5 1.39883,-5.1 2.29883,-8.5 -1.4,1.1 -2.09844,1.69922 -2.89844,2.19922 -2.5,1.6 -3.3,5.30078 -8,4.30078 -2.6,-0.5 -5.90039,2.29961 -8.90039,3.59961 -0.5,0.3 -1.00039,0.49961 -2.40039,1.09961 0.3,-2.4 0.59922,-4.29922 0.69922,-6.19922 0.1,-1.5 0.50117,-3.1 0.20117,-4.5 -0.9,-4.99999 1.69961,-8.69961 6.59961,-8.09961 5,0.6 7.79922,-2 10.19922,-5.5 1.9,-2.8 4.50039,-4.10078 7.90039,-4.30078 2.8,-0.2 5.7,-0.69961 8.5,-1.59961 0.8,-0.25 1.53164,-0.39453 2.17383,-0.41797 z m -540.591799,2.25586 c 1.631248,-0.0937 4.217971,0.93672 6.917968,3.26172 4.999995,4.3 6.700779,12.39961 3.800782,16.59961 -3.899996,-6.39999 -7.900004,-12.89845 -12,-19.39844 0.299999,-0.275 0.7375,-0.43164 1.28125,-0.46289 z m 377.505859,3.24609 c 4.63125,0.42188 8.81289,2.16641 12.71289,5.31641 4.7,3.7 10.29961,6.20001 13.59961,11.5 0.6,1.1 1.30039,2.20039 1.90039,3.40039 2.7,5.4 2.59882,5.79922 -3.20117,6.69922 -1,0.1 -2.89883,-0.69961 -3.29883,-1.59961 -5.49999,-12.19999 -21.60118,-16.00078 -32.70117,-12.30078 -1.6,0.6 -3.39961,0.80078 -5.09961,0.80078 -4.2,0.1 -8.49961,0 -13.09961,0 1,-1.3 1.80039,-2.90117 2.90039,-4.20117 5.89999,-6.1 13.30001,-8.79961 21.5,-9.59961 1.65,-0.15 3.24336,-0.15625 4.78711,-0.0156 z m -302.59961,1.3418 c 3.6375,0.275 7.21289,1.17422 10.71289,3.07422 4.1,2.2 7.19922,5.39922 9.19922,9.69922 1.5,3.3 0.70078,4.1 -2.69922,5 -8.49999,2.2 -16.9004,4.80078 -25.40039,7.30078 -0.2,0 -0.60117,0.0992 -1.20117,0.19922 0.1,-1 0.20039,-1.8 0.40039,-3 -3.6,1.5 -6.89961,2.90039 -10.59961,4.40039 -3.2,-6.29999 4.00039,-6.59922 5.40039,-10.69922 -4.1,1.6 -8.20079,3.2 -12.80078,5 0.3,-1.2 0.60039,-2.10078 0.90039,-3.30078 -5.79999,0.8 -7.20039,-4.39961 -11.40039,-7.09961 8.79999,-5 17.2004,-8.40039 26.40039,-9.90039 3.75,-0.6 7.45039,-0.94883 11.08789,-0.67383 z m 114.01172,5.375 c 1.9,0.4 2.90078,0.39883 3.80078,0.79883 3.6,1.7 7.09883,3.70039 10.79883,5.40039 3.4,1.5 6.90039,2.79922 10.40039,4.19922 1.2,0.5 2.79961,0.90039 3.59961,1.90039 6.99999,8.59999 13.90079,17.20079 20.80078,25.80078 0.1,0.1 0,0.4 0,1.5 -9.89999,-5.79999 -17.59962,-14.10118 -27.09961,-19.70117 -0.5,0.6 -1,1.10156 -1.5,1.60156 3,2.4 5.9,4.7 9,7 1.2,0.9 2.70039,1.4 1.90039,3.5 -0.2,0.4 0.69883,1.4 1.29883,2 1.6,1.8 3.30039,3.39961 4.90039,5.09961 -0.2,0.3 -0.3,0.60039 -0.5,0.90039 l -5.40039,-1.5 c 0,0.2 -0.0996,0.3 -0.0996,0.5 3.1,1.9 6.1,3.79961 9.5,5.59961 -0.2,0.4 -0.39961,0.89883 -0.59961,1.29883 -6.49999,-2.7 -13.00001,-5.3 -19.5,-8 -0.1,0.2 -0.10117,0.3 -0.20117,0.5 3.99999,2.5 8.10157,5 12.10156,7.5 -0.1,0.4 -0.20078,0.7 -0.30078,1 l -4.5,-0.29883 -0.30078,0.59961 c 5.49999,3 10.90079,6.09961 16.30078,9.09961 -0.1,0.4 -0.30039,0.69961 -0.40039,1.09961 -8.19999,-0.3 -16.19962,-3.49961 -24.59961,-2.59961 3.4,1 6.69961,1.90039 10.09961,2.90039 0.2,0.3 0.50117,0.69961 0.70117,1.09961 -0.8,0.5 -1.70117,0.9 -2.70117,1.5 5.89999,1.3 11.60118,2.69961 17.70117,4.09961 -0.7,1 -1.20156,1.70039 -2.10156,2.90039 2.6,0.2 4.8,0.30039 7,0.40039 0.1,0.4 0.10117,0.7 0.20117,1 -2.3,0.4 -4.6,0.90078 -7,1.30078 -13.09999,2 -26.20079,4.1 -39.30078,6 -3.8,0.6 -7.79883,2.19922 -11.29883,0.19922 v -5.40039 c 1.2,-0.4 2.69883,-0.99961 4.29883,-1.59961 v -0.80078 l -6.90039,-0.89844 v -1.20117 c 7.39999,-1.5 14.80118,-2.9 22.70117,-4.5 -3.5,-2.1 -7.00039,-1.89883 -10.40039,-2.29883 -3.5,-0.4 -6.90039,-1.10117 -10.40039,-1.70117 -0.1,-0.4 -0.0992,-0.79922 -0.19922,-1.19922 3.5,-0.8 7.09922,-1.50078 10.69922,-2.30078 v -0.69922 c -4,-0.5 -8.0004,-0.9 -12.90039,-1.5 1.2,-1.5 1.80078,-2.90078 2.80078,-3.30078 2.1,-0.9 1.90039,-2.3 0.90039,-3.5 -1.5,-1.8 -0.8,-2.79883 1,-3.29883 1.8,-0.5 3.60039,-0.50039 5.40039,-0.90039 2.2,-0.4 4.19961,-0.99961 6.59961,-1.59961 -3.6,-2.6 -6.50078,-4.70078 -9.30078,-6.80078 0.2,-0.4 0.3,-0.69961 0.5,-1.09961 1.7,-0.1 3.49961,-0.30039 5.59961,-0.40039 -3.2,-3.2 -8.49844,-1.90039 -10.89844,-5.90039 5.7,-3 10.99923,-5.09961 17.19922,-2.59961 1.1,0.4 2.90078,-0.80078 4.30078,-1.30078 0,-0.5 -0.10156,-0.89883 -0.10156,-1.29883 -3.3,-1.5 -6.7,-3.00039 -10,-4.40039 -2.2,-0.9 -4.69922,-1.2 -5.19922,-4.5 -0.2,-1.3 -2.89961,-1.90078 -3.59961,-3.30078 -0.4,-0.7 1.09922,-2.29883 2.19922,-4.29883 1.3,0.1 3.49961,0.29961 6.09961,0.59961 -1,-1.3 -1.69961,-2.29922 -3.09961,-4.19922 z M 618.125,248.6875 c 1.525,-0.2625 3.17422,0.21211 5.07422,1.41211 4.19999,2.6 6.20156,7.50039 5.10156,12.40039 -1.6,6.99999 -5.30079,12.60039 -11.30078,16.40039 -1.8,1.2 -4.20078,1.50039 -6.30078,2.40039 -3.9,1.6 -7.99922,3.09961 -11.69922,5.09961 -3.9,2.1 -9.19961,1.99922 -12.09961,-1.30078 -3.8,-4.4 -5.3,-9.7004 -5,-15.40039 0.1,-2.4 2.20039,-3.29844 4.90039,-1.89844 3.2,1.6 6.29844,3.49922 9.39844,5.19922 1,0.6 2.20078,1.09961 3.30078,1.59961 0.1,-0.2 0.30039,-0.39961 0.40039,-0.59961 -2.2,-2 -4.40117,-3.99961 -7.20117,-6.59961 2,0 3.4,-0.30039 4.5,0.0996 1.7,0.6 2.6,-0.0992 4,-0.69922 2.3,-0.9 5.00156,-0.5 7.60156,-0.5 1.4,0 2.79922,0.29844 4.19922,0.39844 0.1,-0.4 0.0992,-0.79922 0.19922,-1.19922 -3.4,-0.8 -6.69962,-1.70078 -11.09961,-2.80078 3,-1.7 5.40078,-2.89922 7.80078,-4.19922 -0.5,-3.2 2.30039,-4.70078 3.90039,-6.80078 1.4,-1.75 2.79922,-2.74922 4.32422,-3.01172 z m -203.92578,2.91211 c 0,1.3 0.30039,2.70078 -0.0996,3.80078 -1.6,5.3 -0.59961,10.20001 1.90039,15 1.6,2.9 3.49922,5.69922 2.69922,9.19922 -0.4,1.9 -1.1,3.90117 -2,5.70117 -4,7.79999 -4.99922,15.69884 -1.19922,23.79883 0.2,0.6 0.30039,1.30039 0.40039,1.90039 0,0.3 -0.10078,0.60039 -0.30078,1.40039 -4.9,0 -8.89922,-2.10039 -11.69922,-5.40039 -3.7,-4.5 -3.6,-7.99922 -0.5,-14.19922 -1.2,0.1 -2.20039,0.0992 -3.90039,0.19922 1.5,-2.7 2.70039,-4.89922 3.90039,-7.19922 -0.1,-0.2 -0.30039,-0.3 -0.40039,-0.5 -0.8,0.4 -1.70039,0.79844 -2.40039,1.39844 -2.5,2.1 -4.59922,1.80117 -5.19922,-1.29883 -0.5,-2.9 -0.70117,-6.20078 0.29883,-8.80078 2.5,-6.19999 5.80039,-12.19962 8.90039,-18.09961 2,-3.7 4.99961,-6.30039 9.59961,-6.90039 z m 129.99219,1.70898 c 1.32031,-0.008 2.65781,0.091 4.00781,0.29102 1.2,0.2 2.40078,1.20117 4.30078,2.20117 -3.1,1.7 -5.30078,2.99922 -7.80078,4.19922 0.1,0.3 0.30039,0.60039 0.40039,0.90039 3.2,-0.6 6.3,-1.10117 9.5,-1.70117 l 0.30078,0.60156 c -4.1,3.1 -8.30039,6.19883 -12.40039,9.29883 L 543.09961,270 c 2.4,-1.3 4.90039,-2.7 7.40039,-4 2.3,-1.2 4.6,-2.5 7,-3.5 0.9,-0.3 2.29922,0 3.19922,0.5 0.5,0.3 0.30039,1.60078 0.40039,2.80078 0.5,0.1 1.40117,0.2 2.70117,0.5 -1.4,2.4 -2.80156,4.49961 -4.10156,6.59961 l 0.70117,0.69922 c 1.7,-1.4 3.6,-2.59922 5,-4.19922 3.1,-3.5 7.0004,-2.99961 10.90039,-2.59961 0.7,0.1 1.69844,1.09844 1.89844,1.89844 1.4,5.29999 2.7,10.7 4,16 1.7,6.79999 -2.20001,11.10078 -9,9.80078 -2.5,-0.5 -4.59883,-0.4 -6.79883,1.5 -2.3,2 -5.39961,2.50039 -8.59961,1.40039 -8.39999,-3 -16.90079,-5.90039 -25.30078,-8.90039 -4.7,-1.7 -6.59961,-6.00079 -4.59961,-10.80078 1.1,-2.6 1.29922,-4.89922 0.19922,-7.69922 -2.1,-5.19999 7.9e-4,-10.6 4.80078,-13.5 3.525,-2.175 7.33008,-3.16797 11.29102,-3.19141 z m -438.97852,0.17969 c 2.1625,-0.2625 4.43789,0.61133 6.58789,2.61133 4.1,3.9 6.49961,8.70118 7.09961,14.20117 0.4,3 0.19961,6.3 -3.40039,8 -1.8,0.9 -3.40039,2.2 -5.40039,3.5 -2.6,-14.09998 -4.89883,-19.30157 -10.798829,-24.10156 1.699999,-2.55 3.749609,-3.94844 5.912109,-4.21094 z m 275.03516,0.0898 c 1.71406,-0.11562 3.72773,0.14727 6.05273,0.82227 3.7,1.1 6.99922,3.7 10.19922,6 2.7,2 2.50078,5.29961 0.30078,9.09961 -2.2,3.7 -4.10078,7.49961 -6.30078,11.59961 -3.7,-1.4 -7.80039,-3.00039 -11.90039,-4.40039 -0.1,0.4 -0.3,0.70156 -0.5,1.10156 4.59999,3.7 11.6,4.20001 14,11 -1.7,0.1 -3.49922,0.19883 -5.19922,0.29883 0,0.2 -0.0996,0.3 -0.0996,0.5 l 9.29883,3.90039 c -0.1,0.4 -0.30039,0.90078 -0.40039,1.30078 -6.1,-0.7 -12.09962,-3.70156 -19.09961,-1.60156 7.39999,2.4 14.80079,3.50157 20.80078,7.60156 -0.1,0.3 -0.10117,0.59844 -0.20117,0.89844 -1.1,0.3 -2.19844,0.60078 -2.89844,0.80078 4.5,4.4 8.99844,8.79961 12.89844,12.59961 -2.4,5.19999 -4.49961,10.2 -7.09961,15 -0.7,1.2 -2.59961,2.2 -4.09961,2.5 -9.69999,1.7 -19.30079,-2.89884 -24.30078,-11.79883 -1.5,-2.8 -2.59961,-5.9 -3.59961,-9 -0.8,-2.4 -2.1,-3.90156 -4.5,-5.10156 -7.99999,-3.9 -12.7,-13.90001 -10,-21.5 1.7,-4.8 4.8,-8.6 9.5,-11 1.3,-0.7 2.50078,-1.39844 3.80078,-1.89844 3.8,-1.5 5.39961,-3.90039 5.59961,-8.40039 0.15,-6.22499 2.60586,-9.97539 7.74805,-10.32227 z m 66.43359,0.61524 c 7.46249,-0.3375 15.09258,2.53243 19.51758,8.60742 0.9,1.2 0.90078,2.99961 1.30078,4.59961 -1.7,-0.1 -3.5,0.1 -5,-0.5 -2.1,-0.9 -3.80039,-2.70039 -5.90039,-3.40039 -1.9,-0.6 -4.29922,-0.90039 -6.19922,-0.40039 -2.3,0.5 -3.59961,0.29961 -5.09961,-1.40039 -1.8,-2.1 -3.80039,-3.99961 -5.90039,-6.09961 2.325,-0.825 4.79375,-1.29375 7.28125,-1.40625 z m -20.98633,2.29883 c 8.01035,-0.79297 16.35469,4.19571 18.80469,10.4082 -3.2,1.9 -5.40039,4.7004 -4.90039,8.90039 0.2,1.7 0.50117,3.39961 0.70117,5.09961 0.3,3.5 -1.40156,6.1 -4.10156,8 -4.9,3.5 -7.29844,7.79923 -5.89844,14.19922 0.7,2.8 -0.50078,6.09961 -1.30078,9.09961 -0.9,3.1 -3.60039,3.40117 -6.40039,3.20117 -2.6,-0.2 -3.00039,-2.09961 -3.40039,-4.09961 -0.8,-3.4 -1.9,-6.70156 -2.5,-10.10156 -0.8,-4.4 0.60039,-8.39883 2.40039,-12.29883 1.2,-2.5 2.69961,-5.10078 3.09961,-7.80078 0.5,-2.9 -0.0992,-5.90039 -0.19922,-8.90039 -0.4,0 -0.69961,-0.0996 -1.09961,-0.0996 0.5,-0.5 0.99922,-0.99961 2.19922,-2.09961 -0.8,-0.3 -1.69922,-0.50039 -3.19922,-0.90039 2.9,-1.2 4.70039,-1.89961 6.40039,-2.59961 -0.1,-0.3 -0.10117,-0.7 -0.20117,-1 -2.5,0.3 -5.09922,0.60039 -7.69922,0.90039 -2.2,-3.9 -0.5996,-7.70117 3.90039,-9.20117 1.1125,-0.3625 2.2502,-0.59375 3.39453,-0.70703 z m -256.33008,5.85937 C 179.0203,262.21348 189.57501,266.85001 195,277 c 0.2,0.4 0.20078,0.79961 0.30078,1.09961 -7.69999,2 -15.10001,3.99961 -22.5,6.09961 -2.2,0.6 -4.20039,1.70117 -6.40039,2.20117 -4.2,0.9 -8.1,1.99883 -12,3.79883 -2.1,1 -5.1,0.20117 -8,0.20117 0.4,-2.5 0.79922,-4.60117 1.19922,-7.20117 -3.3,-4 -6.6004,0.70039 -10.40039,0.90039 -0.3,-1.8 -0.69883,-2.50039 -3.29883,-2.40039 -2.5,0.1 -5.10117,-2.49844 -7.70117,-3.89844 v -1.20117 c 4.19999,-2.2 8.30078,-5 12.80078,-6.5 8.59999,-2.9 17.30079,-5.90039 26.30078,-7.40039 1.325,-0.2125 2.68516,-0.32793 4.06445,-0.34766 z M 517.19922,262.5 c 3.1,0.3 6.00117,0.29922 6.20117,4.19922 0.2,3.7 0.2,7.50117 0.5,11.20117 0.2,3.3 0.69922,6.59961 1.19922,10.59961 -2.7,0.4 -5.79961,1 -9.09961,1.5 2.1,-5 5.3,-9.30079 5.5,-13.80078 0.2,-4.4 -2.70078,-8.89922 -4.30078,-13.69922 z m -63.61719,3.26172 c 2.74219,0.0703 4.99219,1.36289 6.11719,3.83789 -2.8,-1 -5.5,-2.1 -9,-3.5 1,-0.25 1.96875,-0.36133 2.88281,-0.33789 z m -363.187499,0.26172 c 4.110934,0.29531 6.60508,2.37696 8.705078,6.87695 2.200001,4.5 2.799611,9.99961 -0.90039,12.59961 -2.099998,-3.1 -4.199221,-6.30039 -6.199219,-9.40039 -1.999998,-3.2 -4.000784,-6.29883 -6.300781,-9.79883 1.774998,-0.275 3.325001,-0.37578 4.695312,-0.27734 z M 478.16992,269.625 c 5.82695,-0.007 8.95469,4.22422 11.92969,8.07422 7.19999,9.79999 6.80038,21.80001 -0.0996,32 -3.1,4.59999 -6.00079,9.30078 -11.30078,11.80078 -1.4,0.7 -2.99844,1.09961 -4.39844,1.59961 -2,-4.4 -1.70156,-7.80039 1.39844,-11.40039 3.6,-4.2 5.20117,-9.39923 3.70117,-15.19922 -0.4,-1.8 -0.3,-4.09922 0.5,-5.69922 3.4,-6.69999 1.3,-12.40039 -2.5,-17.90039 -0.6,-0.9 -1.10039,-1.8 -1.90039,-3 0.95,-0.1875 1.8375,-0.27441 2.66992,-0.27539 z m -29.54297,0.24414 c 5.56445,-0.81894 11.79883,4.34298 12.67383,10.73047 1,7.69999 -3.30157,10.69961 -9.10156,14.09961 -0.6,-1.8 -1.1,-3.19922 -1.5,-4.69922 -1.1,-4.2 -3.19844,-7.69922 -6.39844,-10.69922 -3.2,-3.1 -1.99999,-6.70117 2,-8.70117 0.75,-0.375 1.53125,-0.61348 2.32617,-0.73047 z m 22.07227,0.93164 c 4.89999,1.5 8.60156,11.89883 5.60156,16.79883 -2.3,-2.2 -4.10156,-5.1 -6.60156,-6 -4.5,-1.6 -5.39883,-4.99961 -6.29883,-8.59961 2,-0.6 3.89883,-1.30039 5.79883,-1.90039 0.5,-0.2 1.1,-0.39883 1.5,-0.29883 z m -349.32422,9 c 0.875,-0.175 1.77539,-0.2 2.52539,0 8.09999,2 15.99961,10.99962 15.09961,19.09961 -0.1,0.8 -0.49961,1.69961 -1.09961,2.09961 -2.9,1.9 -5.90078,3.7 -8.80078,5.5 -1.4,0.8 -2.49883,0.60078 -2.79883,-1.19922 -1.1,-7.89999 -5.5004,-13.60157 -11.90039,-18.10156 -0.4,-0.3 -0.7,-0.79961 -1.5,-1.59961 2.2,-1.8 3.99961,-3.60039 6.09961,-4.90039 0.65,-0.4 1.5,-0.72344 2.375,-0.89844 z m 72.07812,2.25781 c 9.38437,-0.76406 18.5715,0.79102 27.64649,4.54102 4.89999,2 8.20117,4.90079 9.20117,10.30078 0.7,3.7 -0.50078,6.79883 -3.80078,8.79883 -4.8,3 -10.19922,4.10078 -15.69922,4.80078 -10.69999,1.3 -21.00001,3.69961 -31,7.59961 -3,1.2 -5.80117,2.00117 -9.20117,0.20117 4.39999,-3.6 8.70078,-7.10156 12.80078,-10.60156 -0.1,-0.2 -0.30039,-0.49883 -0.40039,-0.79883 -3,1 -6.2,1.7 -9,3 -3.4,1.5 -6.69961,0.80039 -10.09961,0.40039 -1.7,-0.3 -3.50078,0.29883 -5.30078,0.29883 -1.3,0 -3,7.8e-4 -4,-0.69922 -3.1,-2.2 -5.80039,-4.8 -8.90039,-7 -1.8,-1.3 -1.89844,-2.00117 0.10156,-3.20117 12.09999,-6.89999 24.59923,-12.69961 38.19922,-16.09961 3.175,-0.775 6.325,-1.28633 9.45312,-1.54102 z m 249.64649,2.04102 c 3.3,1.4 5.70117,8.60001 5.20117,16 -5.19999,-0.3 -8.40039,-3.49961 -11.40039,-6.59961 2.2,-3.3 4.19922,-6.30039 6.19922,-9.40039 z m 23.20117,0.20117 c 6.59999,1.5 11.39844,15.29923 7.89844,22.69922 -2.9,-2.5 -5,-0.60039 -7.5,1.09961 -4.4,2.9 -9.09883,5.20117 -14.29883,8.20117 -0.3,-4.09999 -1.29961,-7.00156 1.40039,-9.60156 0.6,-0.6 0.49844,-2.89883 -0.10156,-3.79883 -2.6,-3.6 -2.6,-3.89961 1.5,-6.09961 5.19999,-2.8 10.20156,-5.90001 11.10156,-12.5 z M 501.40039,289.5 c 5.3,0.9 10.39883,2.30079 14.29883,6.30078 2.5,2.6 2.00078,6.29922 -1.19922,8.19922 -2.1,1.3 -4.20078,2.4 -6.30078,3.5 -1.9,1.1 -2.39883,2.59922 -1.79883,4.69922 2.9,9.59999 0.49921,18.1004 -5.80078,25.40039 -4.6,5.19999 -10.49884,8.4 -17.79883,8 -0.8,0 -2.00078,-0.8 -2.30078,-1.5 -2,-5 -3.69922,-10.1004 -5.69922,-15.40039 4.9,0.9 9.79922,1.90156 14.69922,2.60156 0.2,-0.3 0.30039,-0.60039 0.40039,-0.90039 -2.2,-1.2 -4.40117,-2.49961 -7.20117,-4.09961 2.3,-0.7 3.90039,-1.20078 5.90039,-1.80078 -0.6,-1 -0.99883,-1.60078 -1.79883,-2.80078 5,-0.3 9.59962,-0.49922 14.09961,-0.69922 0,-0.5 0.0996,-1 0.0996,-1.5 -3.9,-0.7 -7.8,-1.40078 -12.5,-2.30078 1.8,-1.4 3.19922,-2.49922 4.19922,-3.19922 0.4,-1.8 0.50117,-3.39922 1.20117,-4.69922 3,-5.49999 4.8,-11.3 5.5,-17.5 0.1,-0.9 1.4,-2.40078 2,-2.30078 z m 28.67383,3.85547 c 5.04374,0.16406 9.975,1.27031 14.625,3.44531 9.69999,4.4 19.3004,9.19883 28.90039,13.79883 0.1,0.1 0.2,0.40078 0.5,0.80078 -14.39999,0.6 -25.6004,-0.59961 -29.90039,-3.09961 2.2,-1 4.30039,-2 6.40039,-3 l -0.29883,-1.20117 c -1.3,0 -2.60039,-0.2 -3.90039,0 -2.8,0.4 -5.60039,0.90039 -8.40039,1.40039 -0.1,0 -0.20078,0.0996 -0.30078,0.0996 -4.7,-3 -9.29844,0.70078 -13.89844,0.30078 h -1.5 c 3.2,-1.8 5.89961,-3.30078 8.59961,-4.80078 -0.1,-0.4 -0.3,-0.79922 -0.5,-1.19922 -2.4,0.6 -4.69961,1.19883 -7.09961,1.79883 -0.2,-2.3 -0.50039,-4.29883 -0.40039,-6.29883 0.1,-0.7 1.29961,-1.80039 2.09961,-1.90039 1.7,-0.15 3.39297,-0.19922 5.07422,-0.14453 z m -422.42188,0.11133 c 2.76094,-0.0984 4.97266,1.30898 6.84766,3.33398 2.5,2.7 4.99961,5.69883 3.59961,9.79883 -4.5,-4.1 -8.9004,-8.2 -13.40039,-12.5 1.05,-0.4 2.03281,-0.6 2.95312,-0.63281 z m 325.94727,2.33398 c 5.19999,3.4 10.20079,6.59961 14.80078,9.59961 0.2,1.9 0.29922,3.7 0.69922,5.5 0.6,2.6 -3.30039,6 -6.40039,5 -2.9,-0.9 -5.49961,-2.59961 -8.09961,-4.09961 -0.6,-0.4 -1.09961,-1.40117 -1.09961,-2.20117 -0.1,-3.5 -0.0996,-7.09961 -0.0996,-10.59961 0,-0.9 0.0992,-1.89922 0.19922,-3.19922 z M 141.5,304.19922 c 2.375,0.2 4.69922,1.55 7.69922,4 5.19999,4.29999 7.80117,9.6004 9.20117,15.90039 0.5,2 0.10039,3.50039 -2.09961,4.40039 -2.9,1.2 -5.7,2.70078 -9,4.30078 -0.7,-2.5 -1.20078,-4.70117 -1.80078,-6.70117 -2.4,-7.09999 -7.59923,-11.2 -14.19922,-14 -0.7,-0.3 -1.3,-0.90039 -2,-1.40039 0.6,-0.7 1.09883,-1.4 1.79883,-2 0.7,-0.6 1.60039,-1.09961 2.40039,-1.59961 3.2,-2.15 5.625,-3.10039 8,-2.90039 z m 212.69922,1.10156 c 3.4,2.8 6.40039,5.29883 9.40039,7.79883 -0.6,0.6 -0.70039,0.90039 -0.90039,0.90039 -9.09999,1.9 -9.1,4.20077 -8.5,-8.69922 z m 182.10156,5.79883 c 13.09999,3 26.19845,3.69961 39.39844,3.09961 0.2,0.5 0.3,0.90039 0.5,1.40039 -3.8,2.6 -7.39961,5.80039 -11.59961,7.90039 -8.19999,3.9 -17.00001,5.40078 -26,5.30078 -7.69999,-0.1 -15.4004,-1.40156 -22.40039,-5.10156 -2.1,-1.1 -3.09844,-2.39883 -2.89844,-4.79883 0.2,-2.1 0,-4.19961 0,-7.09961 5.5,2.9 10.39922,5.39844 15.19922,7.89844 0.3,-0.4 0.50078,-0.7 0.80078,-1 -2.1,-2.1 -4.20078,-4.19922 -6.30078,-6.19922 6.79999,-2.1 12.09962,2.69922 18.09961,3.69922 0.1,-0.3 0.3,-0.49883 0.5,-0.79883 -1.8,-1.5 -3.49883,-2.90078 -5.29883,-4.30078 z m -67.5,0.0996 c 0.5,2.1 0.89961,3.80039 1.09961,5.40039 0.7,5.49999 -0.7004,8.00117 -5.90039,10.70117 -4.99999,2.6 -10.3004,3.99844 -15.90039,3.89844 -4.9,-0.1 -9.79961,0.001 -14.59961,-0.79883 -5.99999,-1 -11.29961,-3.80079 -14.09961,-9.80078 -0.2,-0.4 -0.4,-0.79922 -0.5,-1.19922 -0.1,-0.3 -3.9e-4,-0.60117 0.0996,-1.70117 17.79998,6.29999 34.3008,4.19999 49.80078,-6.5 z m -247.83203,0.57812 c 6.52499,-0.33281 12.88047,1.14727 18.73047,4.82227 2.7,1.6 5.10156,7.50078 4.10156,10.30078 -0.3,0.9 -1.70078,1.79961 -2.80078,2.09961 -13.79999,3.8 -27.70001,7.60039 -41.5,11.40039 -2.6,0.7 -5.20078,1.19883 -7.80078,1.79883 l -0.29883,-0.89844 c 4.1,-2.3 8.09961,-4.70078 12.09961,-6.80078 -0.1,-0.4 -0.3,-0.69961 -0.5,-1.09961 -4.4,1.7 -8.69961,3.29961 -13.09961,5.09961 -1.5,0.6 -2.30039,0.9 -3.90039,-0.5 -1.5,-1.4 -4.29961,-1.09961 -6.59961,-1.59961 -0.8,-0.2 -1.60039,-0.3 -2.40039,-0.5 -0.4,-0.1 -0.99922,-0.80117 -1.19922,-0.70117 -6.39999,3 -6.40078,-4.39844 -10.30078,-5.39844 0.1,-0.4 0.0992,-0.90078 0.19922,-1.30078 6.59999,-2.7 13.20001,-5.89961 20,-8.09961 9.39999,-3 19.00118,-5.60117 28.70117,-7.70117 2.2,-0.5 4.39336,-0.81094 6.56836,-0.92188 z m 210.33203,1.82227 c 2.1,1.2 4.09961,2.30039 6.09961,3.40039 -0.2,0.4 -0.3,0.90078 -0.5,1.30078 -2.4,-0.4 -4.80078,-0.90039 -7.80078,-1.40039 1,-1.5 1.40117,-2.20078 2.20117,-3.30078 z m -111.61328,2.72461 c 0.6875,0.1 1.26211,0.52539 1.41211,1.77539 0.2,2.3 0.001,4.10117 -2.79883,4.70117 -6.89999,1.6 -13.80118,3.49922 -20.70117,5.19922 -5.79999,1.4 -11.69962,3.1 -17.59961,4 -4.1,0.6 -8.29922,0.0996 -12.69922,0.0996 0.7,-6.19999 -4.30078,-3.19922 -7.30078,-4.69922 1.4,-0.7 2.29922,-1.3 3.19922,-1.5 6.29999,-1.3 12.70001,-2.60078 19,-3.80078 6.19999,-1.2 12.3,-2.19922 18.5,-3.19922 5.59999,-0.9 11.2004,-1.70039 16.90039,-2.40039 0.6,-0.05 1.40039,-0.27578 2.08789,-0.17578 z m -192.41406,0.10156 c 3.52031,0.0234 6.57695,1.75 9.12695,4.375 3.4,3.5 5.69961,7.79922 4.59961,12.69922 -5.69999,-5.49999 -11.5004,-11.00001 -17.40039,-16.5 1.275,-0.4 2.50039,-0.58203 3.67383,-0.57422 z m 285.52734,0.375 c 2.8,3.8 4.79961,7.69922 7.59961,10.19922 3.6,3 8.0004,5.40039 12.40039,6.90039 3.4,1.2 5.29883,2.40039 5.79883,5.90039 0.2,1.2 0.69961,2.39961 1.09961,3.59961 h 1.10156 c 0.3,-2.1 0.69922,-4.2 1.19922,-7 2.4,2.5 4.4,4.70039 6.5,6.90039 0.2,-0.1 0.50078,-0.20078 0.80078,-0.30078 -0.9,-2.3 -1.80156,-4.6 -3.10156,-8 2.6,0.7 4.80156,0.90039 6.60156,1.90039 1.8,1 3.29844,2.69961 4.89844,4.09961 0.2,-0.2 0.50078,-0.39961 0.80078,-0.59961 -1.2,-1.9 -2.40078,-3.70039 -3.80078,-5.90039 0.6,-0.4 1.3,-0.79961 2,-1.09961 3.1,-1.3 6.30078,-2.5 9.30078,-4 2,-1 3.19922,-0.99961 4.69922,0.90039 4.39999,5.7 6.80039,11.80001 4.40039,19 -2,6.1 -6.80001,9.19844 -12.5,10.89844 -11.09999,3.4 -21.29884,1.00038 -30.79883,-5.59961 -2,-1.4 -5.20117,-1.89961 -7.70117,-1.59961 C 416.99962,353.9 410.7,351.60077 407,345.30078 c -5.79999,-10.09999 -4.80077,-16.60118 2.69922,-26.20117 0.9,-1 2.20156,-1.69883 3.10156,-2.29883 z m -48.875,2.69922 c 0.825,0.15 1.625,0.59961 2.375,1.59961 3.2,4.1 6.89922,7.99961 10.69922,11.59961 2,1.9 4.79922,2.90078 7.19922,4.30078 0.1,0.4 0.20078,0.69961 0.30078,1.09961 -1.1,0.4 -2.49922,1.49961 -3.19922,1.09961 -6.19999,-3.5 -12.4004,-3.09844 -18.90039,0.10156 -2.9,-5.49999 -4.90039,-10.9004 -3.40039,-16.90039 0.3,-1 1.40039,-2.50117 2.40039,-2.70117 0.85,-0.2 1.70039,-0.34922 2.52539,-0.19922 z m -10.52539,7.90039 c 4,5.2 3.90039,11.99961 -0.0996,13.59961 -1.9,-4.4 0.19961,-8.69961 0.0996,-13.59961 z m 159,0.29883 c 7.29999,1.2 9.59883,3.10001 10.79883,10 0.9,4.89999 1.10039,9.90039 1.40039,14.90039 0,1.1 -0.49883,2.20117 -0.79883,3.70117 -4.99999,-6.69999 -9.60118,-12.90118 -14.20117,-19.20117 -0.4,-0.5 -0.59883,-1.59883 -0.29883,-2.29883 0.9,-2.5 2.09961,-4.80156 3.09961,-7.10156 z m -263.63867,2.45117 c 0.6375,0.15 0.98867,0.64961 0.63867,1.84961 -1,3.4 0.19883,4.70078 3.29883,5.30078 0.3,0 0.50039,0.39961 1.40039,1.09961 -21.29998,5.3 -42.09963,9.60039 -63.59961,8.90039 -0.1,-0.4 -0.20078,-0.90078 -0.30078,-1.30078 3.5,-1 7,-2.09961 10.5,-3.09961 15.19998,-4.2 30.50119,-8.3 45.70117,-12.5 0.8,-0.2 1.72383,-0.4 2.36133,-0.25 z m -86.94922,1.23633 c 0.4875,0.0625 0.98672,0.21406 1.38672,0.41406 5.09999,2.4 8.90078,6.19883 11.30078,11.29883 0.4,0.9 0.50078,2 0.80078,3 -0.2,0.4 -0.50117,0.69961 -0.70117,1.09961 -5,-1.3 -9.99962,-2.89883 -15.09961,-3.79883 -3.6,-0.6 -5.79961,-2.50039 -7.59961,-5.40039 -0.9,-1.5 -0.59961,-2.3 0.90039,-3 2.6,-1.2 5.09922,-2.5 7.69922,-3.5 0.35,-0.15 0.825,-0.17578 1.3125,-0.11328 z m 140.08789,1.21289 c 0.4,-0.1 0.89883,0.10078 2.29883,0.30078 -4,3 -7.19961,5.50039 -10.59961,7.90039 -1.5,1.2 -3.69883,2.19883 -4.29883,3.79883 -3.3,9.19999 -12.6,13.29962 -17.5,21.09961 -0.1,0.2 -0.002,0.5 -0.10156,1 6.19999,-5.4 12.20001,-10.60001 19,-16.5 0.7,4.69999 -1.39844,7.50078 -2.39844,10.80078 2.8,-3.5 5.49883,-7 8.29883,-10.5 0.4,0.2 0.69961,0.3 1.09961,0.5 -0.3,0.9 -0.5,1.90078 -1,2.80078 -2.8,5.1 -5.7,10.19883 -8.5,15.29883 -0.3,0.6 -0.39961,1.30117 -0.0996,2.20117 4.1,-5.79999 8.30039,-11.6004 12.40039,-17.40039 0.4,0.2 0.69961,0.39961 1.09961,0.59961 -1.1,2.6 -1.99922,5.30039 -3.19922,7.90039 -5.99999,12.99999 -11.70118,26.1004 -18.20117,38.90039 -3,6 -7.09883,11.59844 -11.29883,16.89844 -5.59999,7.09999 -14.4004,6.00077 -20.40039,0.30078 -9.09999,-8.49999 -11.69961,-18.99962 -8.59961,-31.09961 3.1,-11.89999 9.39884,-21.89962 18.29883,-30.09961 10.99999,-10.09999 23.8004,-17.60157 37.90039,-22.60156 1.9,-0.7 3.90078,-1.49961 5.80078,-2.09961 z m 12.5,5.40039 c 0.4,0.2 0.69961,0.3 1.09961,0.5 -0.7,1.8 -1.4,3.69961 -2,5.59961 -3.1,8.99999 -6.19922,17.9004 -9.19922,26.90039 -0.1,0.5 0,1.1 0,2.5 3.1,-5.99999 5.69844,-11.30001 8.39844,-16.5 0.5,0.1 1,0.3 1.5,0.5 -0.6,2.3 -0.99883,4.7 -1.79883,7 -0.8,2.3 -2.1,4.4 -2.5,7 3.7,-5.89999 7.49922,-11.79922 11.19922,-17.69922 l 0.40039,0.39844 c -5.19999,15.29998 -11.4,30.50158 -15.5,46.10156 -4.1,15.49999 -6.30078,31.49845 -9.30078,47.39844 -1.6,0.2 -3.19883,0.40039 -4.79883,0.90039 V 431.19922 H 291.5 c -1.9,5.09999 -3.80078,10.2 -5.80078,15.5 -5.8,-3.3 -2.89961,-7.79961 -3.09961,-11.59961 -0.3,-0.1 -0.60039,-0.0996 -0.90039,-0.0996 -0.8,3.6 -1.39844,7.30039 -2.39844,10.90039 -0.6,2.1 -1.60117,4.19961 -2.70117,6.09961 -0.6,0.9 -1.90039,1.4 -2.90039,2 -0.3,-0.2 -0.7,-0.39961 -1,-0.59961 0.2,-3.7 0.30078,-7.39961 0.80078,-11.09961 0.9,-6.69999 2.59922,-13.40157 3.19922,-20.10156 0.7,-7.29999 4.20117,-13.29962 7.20117,-19.59961 4.1,-8.49999 7.89883,-17.19923 11.79883,-25.69922 5.49999,-11.99999 11.00157,-24.0004 16.60156,-35.90039 0.5,-1.1 1.39961,-2 2.09961,-3 z m 81.94336,0.45898 c 0.93125,0.0281 1.70625,0.16641 2.15625,0.44141 0.7,0.5 1.1,1.60039 1.5,2.40039 1.3,2.5 2.5,5.09844 4,7.39844 1.6,2.6 1.19961,4.60078 -1.40039,6.30078 -0.9,0.6 -1.50039,1.80078 -1.90039,2.80078 -1.2,3.2 -2.19883,6.39961 -3.29883,9.59961 l -1.20117,-0.30078 c -0.4,-2.1 -0.7,-4.20039 -1,-6.40039 -0.2,0 -0.49922,0.10156 -0.69922,0.10156 -0.7,2.3 -1.49922,4.69961 -2.19922,7.09961 -0.3,0 -0.60039,-0.10117 -0.90039,-0.20117 -0.9,-4 -1.80117,-7.89883 -2.70117,-11.79883 -0.4,0.1 -0.69961,0.0996 -1.09961,0.0996 0.2,4.5 0.50117,9.00079 0.70117,13.80078 -4.09999,-1.4 -7.8,-2.60039 -11.5,-3.90039 -0.5,-0.1 -1,-0.90039 -1,-1.40039 -0.2,-4.5 -0.20078,-9.10078 2.69922,-12.80078 3,-3.9 6.40078,-7.59883 9.80078,-11.29883 1.05,-1.125 5.24922,-2.02578 8.04297,-1.94141 z M 372.875,339.25 c 2.1,0.175 4.175,0.9 6.125,2.25 2,1.3 2.09961,2.49922 0.59961,4.19922 -1.1,1.3 -2.39922,2.60156 -3.19922,4.10156 -1.1,2 -2.30078,2.69922 -4.30078,1.19922 -0.4,0.9 -0.69961,1.7 -1.09961,2.5 -2.3,-1.8 -4.30039,-3.4 -6.40039,-5 l -0.69922,0.69922 c 2.9,3.89999 5.89922,7.80118 9.19922,12.20117 -1.9,0.2 -2.79922,0.3 -4.19922,0.5 1.2,1.5 2.29883,2.7 3.29883,4 -3.6,3.6 -10,2.6 -13,-2.5 -2.8,-4.69999 -4.89844,-9.90079 -7.39844,-15.30078 5.6,-3 9.99883,-5.79883 14.79883,-7.79883 2.05,-0.85 4.17539,-1.22578 6.27539,-1.05078 z m 134.02539,0.98828 c 0.975,0.0125 1.85,1.06172 3.5,3.26172 3.8,5.09999 7.30039,10.39961 10.90039,15.59961 -0.4,0.3 -0.70156,0.69961 -1.10156,1.09961 -6.29999,-0.5 -12.19923,-2.3 -17.69922,-5.5 -7.69999,-4.5 -7.6996,-4.49923 -1.09961,-10.19922 0.5,-0.4 0.90039,-0.80078 1.40039,-1.30078 2.05,-1.95 3.12461,-2.97344 4.09961,-2.96094 z m -250.70117,4.86133 c 0.6,0 1.60078,0.80039 1.80078,1.40039 0.2,0.6 -0.0996,1.79922 -0.59961,2.19922 -1.2,0.9 -2.50078,1.60039 -3.80078,2.40039 l 0.30078,0.59961 c 1.2,-0.4 2.30039,-0.79844 3.90039,-1.39844 -0.3,1.1 -0.40117,1.69961 -0.70117,2.09961 -1.6,2 -3.1,4.09961 -5,5.59961 -1.7,1.3 -3.99961,2.19961 -6.09961,2.59961 -11.09999,2.3 -22.20079,4.3 -33.30078,6.5 -4.2,0.8 -8.29961,1.79961 -12.09961,2.59961 v -15 c 1.8,-0.4 4.1,-1.19883 6.5,-1.29883 13.69999,-0.8 26.80001,-4.3 40,-7.5 2.9,-0.7 6.09961,-0.70078 9.09961,-0.80078 z m 230.94922,5.7793 c 0.90781,0.009 1.72656,0.17148 2.35156,0.52148 0.2,0.1 0.0996,2.10039 -0.40039,2.40039 -3.6,2.2 -7.20039,4.19883 -10.90039,6.29883 -1.7,1 -3.29844,1.90078 -4.89844,2.80078 -0.3,-0.4 -0.50078,-0.7 -0.80078,-1 0.7,-0.8 1.3,-1.60078 2,-2.30078 1.6,-1.9 3.30039,-3.69961 4.90039,-5.59961 1.5,-1.8 5.02461,-3.14922 7.74805,-3.12109 z M 183,354 c 4.1,0.1 8.20079,0.40078 12.30078,0.80078 0.7,0.1 1.79883,1.19844 1.79883,1.89844 0.1,3.5 -3.9e-4,7.10156 -0.40039,10.60156 -0.3,3 -2.39883,4.59844 -5.29883,5.39844 -3.8,1 -7.60039,2.3 -11.40039,3.5 -0.8,0.3 -1.60078,0.3 -2.80078,0.5 -0.8,-7.79999 1.00156,-14.59884 3.60156,-21.29883 C 181.10078,354.70039 182.3,354 183,354 Z m 308.94922,2.50977 c 0.78281,0.0531 1.60117,0.26445 2.45117,0.68945 -2,6.59999 -22.29962,21.1 -29.09961,21 0.1,-0.5 0.0988,-0.99922 0.29883,-1.19922 6.79999,-6.09999 13.4004,-12.29962 20.40039,-18.09961 1.575,-1.275 3.60078,-2.55 5.94922,-2.39062 z m -86.25,1.29101 c 3.99999,-0.5 10.50039,3.4 12.40039,7 0.9,1.8 0.79961,2.79883 -1.40039,3.29883 -5.5,1.2 -9.7,4.4 -13,9 -1.3,1.8 -2.99844,3.39961 -4.89844,5.59961 -2.5,-4.2 -2.6,-7.5 -1,-11 1.9,-4 3.59961,-8.09961 5.59961,-12.09961 0.4,-0.8 1.49883,-1.69883 2.29883,-1.79883 z m 20.23828,0.22461 c 2.6625,0.175 5.21172,0.97383 7.76172,3.17383 4.39999,3.79999 10.70079,5.20078 16.80078,5.30078 3.3,0 6.60039,-0.10039 9.90039,0.0996 1,0.1 1.89883,0.80117 2.79883,1.20117 -0.7,0.7 -1.39922,1.59844 -2.19922,1.89844 -6.59999,2.1 -13.09923,3.20078 -19.69922,-0.69922 -4.79999,-2.8 -10.30157,-2.29961 -15.60156,-2.09961 -2.4,0 -3.99922,-0.29961 -4.69922,-3.09961 -0.4,-1.7 -2.1,-3.20117 -3.5,-5.20117 3,-0.3 5.775,-0.74922 8.4375,-0.57422 z m 74.07422,0.94922 c 0.6625,-0.125 1.38906,0.125 2.28906,0.625 1.4,0.8 2.89922,1.40039 5.19922,2.40039 -3.8,1.9 -7.00039,3.00078 -9.90039,4.80078 -7.39999,4.8 -14.6004,9.89844 -21.90039,14.89844 -0.4,0.3 -0.79883,0.90039 -1.29883,0.90039 -2.1,0.1 -4.30039,0.0996 -6.40039,0.0996 1.3,-1.3 2.40039,-2.79922 3.90039,-3.69922 6.89999,-4.2 13.89923,-8.19961 20.69922,-12.59961 2.2,-1.4 4.1,-3.60078 5.5,-5.80078 0.65,-1 1.24961,-1.5 1.91211,-1.625 z m -147.71094,0.92578 c 4.3,4.1 7.89961,7.4 11.59961,11 -3.1,4.4 -6.50001,8.49883 -13,10.79883 0.5,-7.49999 0.90039,-14.29884 1.40039,-21.79883 z M 240.40039,364.5 c 0.4,-0.1 0.89883,0.20078 1.29883,0.30078 -2.8,5.8 -8.60001,6.2 -13.5,8.5 2.3,-0.2 4.6,-0.40117 7.5,-0.70117 -1.8,3.6 -3.4,6.70078 -5,9.80078 1.9,-0.5 4.20078,-1.2 6.80078,-2 0.7,3.6 -1.99922,4.39961 -4.19922,5.09961 -5.89999,2 -12.0004,3.69961 -17.90039,5.59961 -3.6,1.1 -7.1,2.39961 -10.5,3.59961 -1.3,-5.2 -2.5,-9.69883 -3.5,-14.29883 -0.1,-0.2 3.9e-4,-0.39961 -0.0996,-0.59961 -2.1,-4.79999 -2.20038,-5.00039 3.09961,-6.40039 11.89999,-3.1 24.00001,-6.00039 36,-8.90039 z m 270,1.09961 c -2.3,5.49999 -20.8004,15.30117 -27.40039,14.70117 3.9,-5.49999 22.5004,-15.60117 27.40039,-14.70117 z m -78.5332,4.03711 c 11.04823,0.0533 25.85782,9.43868 31.63281,23.26367 -4.5,1 -8.8,1.99883 -13,2.79883 -3.8,0.8 -7.60039,1.60117 -11.40039,2.20117 -7.29999,1.1 -12.89883,-2.90118 -15.79883,-11.20117 5.2,0.9 10.29883,1.80156 15.29883,2.60156 0,-0.3 0.10117,-0.7 0.20117,-1 -1.2,-1.1 -2.50078,-2.3 -3.80078,-3.5 0.2,-0.3 0.3,-0.60039 0.5,-0.90039 4.99999,0.3 9.9004,0.60039 14.90039,0.90039 0,-0.3 0.0996,-0.60039 0.0996,-0.90039 -1,-0.3 -2.19922,-0.50039 -3.19922,-0.90039 -3.6,-1.5 -7.20117,-2.89922 -10.70117,-4.19922 -4.8,-1.8 -5.59922,-6.10156 -9.19922,-8.60156 1.3875,-0.3875 2.88848,-0.57012 4.4668,-0.5625 z m -57.01758,0.17578 c 3.1,-0.0875 6.24961,0.73828 9.34961,1.98828 6.39999,2.6 9.50039,6.19962 10.40039,10.59961 -4.1,-2.2 -8.09961,-4.4 -12.09961,-6.5 -0.3,0.4 -0.50078,0.79922 -0.80078,1.19922 1.7,1.2 3.30078,2.30078 5.30078,3.80078 -5.49999,3.3 -11.2004,0.5 -16.40039,3 2.9,0.6 5.90078,1.29961 9.80078,2.09961 -2.1,1.6 -3.50039,2.69922 -4.90039,3.69922 0,0.2 0.0996,0.40156 0.0996,0.60156 1.3,-0.2 2.50078,-0.30039 3.80078,-0.40039 -1.3,6.79999 -5.90118,9.89883 -13.20117,8.29883 -6.59999,-1.5 -11.29922,-4.90001 -13.19922,-11.5 -0.2,-0.9 -0.1,-2.39844 0.5,-2.89844 4,-3.6 8.10079,-7.1 12.30078,-10.5 2.9,-2.4 5.94883,-3.40078 9.04883,-3.48828 z m -51.65039,0.78711 c 4.89999,18.29998 0.40038,82.70078 -6.09961,86.30078 -2.9,-11.89999 -0.30038,-80.70079 6.09961,-86.30078 z m 96.92187,0.70312 c 5.36035,0.38868 10.57813,4.1465 11.57813,12.39649 -9.79999,0 -19.59845,0.002 -29.89844,0.10156 1.8,-3.79999 5.4,-2.3 8,-3 2.8,-0.8 5.69961,-0.80117 8.59961,-1.20117 0.1,-0.4 0.0996,-0.7 0.0996,-1 -2.1,-0.4 -4.3,-0.69961 -6.5,-1.09961 -0.2,-1.1 -0.50078,-2.3 -0.80078,-3.5 2.4375,-1.95 5.70567,-2.93047 8.92187,-2.69727 z m 44.07813,1.39649 0.60156,0.90039 c -1.3,1.9 -2.70039,3.90117 -4.40039,6.20117 -1.4,-1.3 -2.60117,-2.30078 -3.70117,-3.30078 1.4,-0.9 2.70156,-1.89961 4.10156,-2.59961 1.1,-0.5 2.29844,-0.80117 3.39844,-1.20117 z m -268.39844,2.90039 c 4,6.29999 5.79844,12.5004 3.39844,19.40039 -0.3,1.1 -1.09961,2.30078 -2.09961,2.80078 -5.5,2.8 -11.0004,5.4 -17.40039,8.5 0.5,-7.79999 -1.7,-14.0004 -5,-19.90039 -1,-1.8 0.3,-2.30078 1.5,-2.80078 6.49999,-2.6 12.90157,-5.3 19.60156,-8 z m 320.39844,2.74609 c 2.07656,-0.0953 4.20039,0.10391 6.40039,0.75391 1.1,0.3 2,1.40117 3,2.20117 -0.9,0.8 -1.90039,2.29844 -2.90039,2.39844 -5.4,0.6 -10.79923,0.90156 -16.19922,1.10156 -2.8,0.1 -5.60039,-0.40156 -8.40039,-0.60156 V 383 c 6.07499,-1.425 11.86993,-4.36836 18.09961,-4.6543 z m -122.79883,7.95508 c -1.9,6 -3.29961,11.99962 -5.59961,17.59961 -1.8,4.3 -5.60118,6.70039 -10.20117,7.90039 -1.5,-11.09999 4.50079,-26.2 15.80078,-25.5 z m 22.00977,0.91406 c 4.10448,0.0459 7.62695,2.46095 8.68945,8.58594 -5.3,2.2 -12.79883,-0.80039 -16.29883,-6.40039 2.475,-1.3875 5.14668,-2.21309 7.60938,-2.18555 z m 67.89062,0.0859 c 10.39999,-1 35.59883,6.40001 34.29883,15.5 -3.2,-0.9 -6.19883,-1.40156 -8.79883,-2.60156 -7.59999,-3.5 -15.10157,-7.19844 -22.60156,-10.89844 -0.9,-0.4 -1.59844,-1.1 -2.89844,-2 z M 477,387.5 c 7.19999,3.6 14.40079,7.09922 21.80078,10.69922 -0.2,0.4 -0.30039,0.90039 -0.40039,1.40039 -2.6,-0.3 -5.4,0.1 -7.5,-1 -4.79999,-2.7 -9.20118,-5.99961 -13.70117,-9.09961 -0.4,-0.2 -0.49883,-0.60039 -0.79883,-0.90039 0.2,-0.4 0.39961,-0.69961 0.59961,-1.09961 z m -309.90039,1 c 3.9,1.6 7.00117,8.70079 6.70117,15.30078 -0.2,3.7 -0.90039,7.3 -4.90039,10 -0.7,-8.89999 -1.30078,-17.00079 -1.80078,-25.30078 z m 301.70117,0 c 6,3.3 12.00001,6.50039 18,9.90039 0.3,0.1 0.19883,2.20039 -0.20117,2.40039 -2.4,1.3 -4.90039,2.09883 -7.40039,-0.20117 -3.1,-2.9 -6.39961,-5.49883 -9.59961,-8.29883 -0.7,-0.7 -1.19883,-1.60039 -1.79883,-2.40039 0.3,-0.5 0.7,-0.90039 1,-1.40039 z M 351,389.30078 c 1.6,2.9 4.6,5.89961 4.5,8.59961 -0.5,5.99999 -2.80079,11.80039 -9.80078,15.40039 0.3,-8.59999 2.5,-16.00157 4,-23.60156 0.4,-0.1 0.90078,-0.29844 1.30078,-0.39844 z m -121.5,0.5 c -2.3,8.69999 -9.90001,9.8 -15.5,13.5 3.4,-1 6.79922,-2.10156 10.19922,-3.10156 0.1,0.4 0.30039,0.80117 0.40039,1.20117 -0.6,0.5 -1.20039,1.10039 -1.90039,1.40039 -4.6,2.2 -9.29883,4.29961 -13.79883,6.59961 -1.7,0.8 -2.60078,0.60039 -3.30078,-1.09961 -0.9,-2.2 -2.09922,-4.30156 -2.69922,-6.60156 -0.2,-0.8 0.89883,-2.39883 1.79883,-2.79883 6.39999,-2.6 12.80079,-5.00039 19.30078,-7.40039 1.7,-0.7 3.6,-1.09922 5.5,-1.69922 z m 172.30078,0.0996 c 5.3,4.1 10.59962,8.19883 16.59961,12.79883 -3.3,0.8 -6.30078,1.6 -9.30078,2 -1,0.2 -2.69961,-0.49883 -3.09961,-1.29883 -2,-4.2 -3.60078,-8.60039 -5.30078,-12.90039 0.4,-0.2 0.70156,-0.39961 1.10156,-0.59961 z m -5.40039,0.69922 c 4.1,7.59999 8.2004,15.2004 12.40039,22.90039 -3.4,1.7 -7.10156,1.39922 -10.60156,0.69922 -4.1,-0.8 -6.39961,-3.99961 -6.59961,-8.09961 -0.2,-5.99999 1.70078,-12.2 4.80078,-15.5 z M 313,391.30078 h 1 c 0,2.5 0.2,5 0,7.5 -0.3,3.7 -1.00078,7.39922 -1.30078,11.19922 -0.4,4.7 -0.49922,9.50079 -0.69922,14.30078 -0.2,7.79999 -0.59961,15.70001 -0.59961,23.5 0,6.2 0.49961,12.39962 0.59961,18.59961 0.1,4.9 -2.39961,8.89922 -5.09961,12.69922 -0.3,0.4 -1.00078,0.59961 -1.80078,1.09961 -2.3,-30.39997 -2.0996,-60.19847 7.90039,-88.89844 z m 155.41797,6.9082 c 0.63125,0.0906 1.30742,0.31641 1.98242,0.69141 2.6,1.4 5,3.19922 8,5.19922 -2.3,1.9 -4.20117,3.59961 -6.20117,5.09961 -1.9,1.6 -3.89922,3.00078 -6.19922,4.80078 -0.3,-4.7 -0.80039,-9.0004 -0.90039,-13.40039 -0.075,-1.725 1.42461,-2.6625 3.31836,-2.39063 z m -46.51758,0.5918 c 4.5,0.6 8.2,1 12,1.5 0.5,0.1 1,0.49844 1.5,0.39844 6.69999,-0.8 9.59961,3.2004 10.59961,8.90039 0.8,4.89999 1,10 1.5,15 -7.69999,0.5 -15.40078,-3.59961 -18.30078,-8.09961 -2.7,-4.2 -6.79844,-7.39922 -10.39844,-11.19922 1.8,-0.9 4.49961,-2.3 3.09961,-6.5 z m 36.34766,0.44336 c 0.33906,-0.1 0.75195,-0.0934 1.25195,0.0566 0.9,0.2 2.19922,1.69922 2.19922,2.69922 0.3,5 0.4,10.09961 0,15.09961 -0.2,1.8 -1.89844,3.60039 -2.89844,5.40039 -0.4,-0.1 -0.80117,-0.0992 -1.20117,-0.19922 -0.5,-2.2 -1.40039,-4.40117 -1.40039,-6.70117 -0.1,-4.5 0.30156,-9.09961 0.60156,-13.59961 0.075,-1.2 0.43008,-2.45586 1.44727,-2.75586 z m -97.9336,0.15625 c 1.34121,0.16172 3.19766,1.06133 5.78516,2.29883 -0.3,1.3 -0.60039,2.50117 -0.90039,4.70117 1.7,-1.3 2.70156,-2.1 4.60156,-3.5 -0.6,5 -1.20117,9.09922 -1.70117,13.19922 0.3,0.1 0.60039,0.10117 0.90039,0.20117 1.6,-4.89999 3.30039,-9.80118 4.90039,-14.70117 l 1.19922,0.30078 c -0.9,3.4 -1.59961,6.79922 -2.59961,10.19922 -1.1,3.6 -1.20078,3.49961 2.69922,4.09961 1.7,6.69999 -2.50001,15.40118 -12.5,25.20117 -0.9,-3.3 -1.69844,-6.10039 -2.39844,-8.90039 -2.2,-8.49999 -4.00039,-17.0004 -3.40039,-25.90039 0.375,-5.68749 1.17871,-7.46875 3.41406,-7.19922 z m 90.27539,1.08594 c 0.74844,-0.0484 1.71016,0.0644 2.91016,0.31445 0,5.1 -0.10039,10.19922 0.0996,15.19922 0.2,2.4 0.69961,4.89922 1.59961,7.19922 1.5,3.7 0.40038,6.00039 -4.09961,7.40039 0.3,-1.3 0.39961,-2.4 0.59961,-3.5 1.9,-7.39999 -0.99922,-14.29923 -2.69922,-21.19922 -0.975,-3.675 -0.65547,-5.26875 1.58984,-5.41406 z m -291.89062,0.21289 c 0.3,0.1 0.60039,0.10117 0.90039,0.20117 2.8,8.39999 0.5996,16.59961 -4.90039,17.09961 1.4,-5.79999 2.7,-11.60079 4,-17.30078 z m 72.20117,0.90039 c 0.7,3.8 -1.60118,6.90039 -7.70117,11.40039 3.4,-1.5 6.8,-3.00039 11,-4.90039 -2.1,7.39999 -7.30001,10.50039 -12,13.90039 -5.4,3.5 -5.39961,3.39921 -9.09961,-1.80078 -1.1,-1.5 -2.69883,-2.69883 -3.79883,-4.29883 -0.4,-0.6 -0.30039,-2.3 0.0996,-2.5 7.09999,-4 14.20001,-7.80078 21.5,-11.80078 z m -31.92578,0.42578 c 0.575,0.075 1.12578,0.27422 1.42578,0.57422 4,3.7 3.5,9.5 -1,12.5 -4.89999,3.2 -9.8,6.40117 -15,9.70117 -1.6,-4.19999 -3.10078,-8.10039 -4.80078,-12.40039 5.99999,-3.5 11.90079,-6.90117 17.80078,-10.20117 0.4,-0.2 0.99922,-0.24883 1.57422,-0.17383 z m 297.17578,1.36133 c 5.1,-0.0125 10.2004,1.26328 15.15039,3.61328 8.29999,3.9 16.09962,9.2004 24.09961,13.90039 0.5,0.3 0.99961,1.09922 1.09961,1.69922 0.1,0.3 -0.80078,0.89961 -1.30078,1.09961 -5.7,1.9 -11.30001,3.70039 -17,5.40039 -0.8,0.2 -1.8,0.10117 -2.5,-0.29883 -5.1,-3.1 -10.09844,-6.20078 -15.89844,-9.80078 3,-0.2 5.2,-0.4 7.5,-0.5 0.1,-0.2 0.0996,-0.39961 0.0996,-0.59961 l -15,-1.80078 c 0,-0.4 -0.0996,-0.7 -0.0996,-1 0.7,-0.4 1.29961,-0.79961 2.09961,-1.09961 -0.1,-0.2 -0.0996,-0.39961 -0.0996,-0.59961 -3.3,0.2 -6.50078,0.49922 -9.80078,0.69922 -0.1,-0.3 -0.20078,-0.7 -0.30078,-1 3.2,-1.3 6.50078,-2.60039 9.80078,-3.90039 -7.59999,-0.6 -14.0004,3.70156 -20.90039,5.60156 -0.2,-0.3 -0.39961,-0.7 -0.59961,-1 2.8,-2.1 5.4,-4.60078 8.5,-6.30078 4.95,-2.8 10.0504,-4.10078 15.15039,-4.11328 z m -84.82031,5.01172 c 10.69261,-0.95728 21.72656,13.51954 21.07031,25.80078 -0.5,0.1 -1.10117,0.50039 -1.70117,0.40039 -8.99999,-1.7 -17.39884,-5.09962 -24.79883,-10.59961 -1.3,-1 -1.50117,-3.60039 -2.20117,-5.40039 0.4,-0.3 0.90078,-0.60039 1.30078,-0.90039 4.1,3.6 8.20079,7.10156 12.30078,10.60156 0.4,-0.4 0.79922,-0.90078 1.19922,-1.30078 -1.9,-2.1 -3.70039,-4.20039 -5.90039,-6.90039 1.6,-0.2 2.50039,-0.29883 2.90039,-0.29883 -0.6,-2.1 -1.09922,-4.20156 -1.69922,-6.10156 -0.3,-0.7 -0.80039,-1.4 -1.40039,-2 -0.9,-1 -1.90117,-1.79844 -3.20117,-2.89844 0.70625,-0.20625 1.41802,-0.33852 2.13086,-0.40234 z m -27.73047,4.40234 v 8.09961 c 1.2,-2.3 2.00117,-4.00117 3.20117,-6.20117 1.1,5.29999 1.99844,9.70157 2.89844,14.10156 0.3,0 0.7,-0.10156 1,-0.10156 1.1,-4.3 -3,-9.49922 2,-13.19922 1.8,0.4 3.60078,0.80078 5.30078,1.30078 3,0.9 3.60078,3.4 3.30078,6 -1.1,9.19999 -3.40118,17.89884 -9.20117,25.29883 -0.1,0.1 -0.29922,0.20039 -1.19922,0.90039 -3.6,-5.09999 -7.40078,-10.09961 -10.80078,-15.09961 -2.6,-3.8 -4.09922,-7.9 -1.69922,-12.5 0.4,-0.8 0.0996,-2.10117 0.0996,-3.20117 0,-4.1 0.79961,-4.89844 5.09961,-5.39844 z m -179.15039,3.83594 c 0.675,-0.0625 1.35156,0.0137 1.85156,0.26367 3.8,1.8 5.59844,5.29922 6.39844,9.19922 0.2,0.9 -0.19844,2.30039 -0.89844,2.90039 -5.49999,4.9 -11.00157,9.79961 -16.60156,14.59961 -0.7,0.6 -1.59961,1.10039 -2.09961,1.40039 0.2,-3.3 0.40117,-6.09961 0.70117,-9.09961 -0.7,-0.2 -1.40039,-0.40039 -2.90039,-0.90039 3.5,-4.4 6.7,-8.4 10,-12.5 -2.2,1.4 -4.40078,2.99922 -6.80078,4.19922 -2,1 -3.39961,4.70117 -7.09961,1.70117 2.5,-1.8 4.70039,-3.49961 6.90039,-5.09961 2.8,-2.1 5.69922,-4.20156 8.69922,-6.10156 0.5,-0.3 1.17461,-0.5 1.84961,-0.5625 z m 26.75,2.53906 c 0.625,-0.1 1.20039,-0.075 1.40039,0.125 1.4,1.6 0.20117,2.7 -1.29883,3.5 -0.2,0.1 -0.30156,0.39883 -0.60156,0.79883 0.8,0.3 1.40117,0.69961 2.20117,1.09961 -0.8,1.1 -1.39961,2.10156 -2.09961,3.10156 l 0.39844,0.39844 c 2.6,-2 5.20078,-3.89883 7.80078,-5.79883 1.9,2.7 1.60039,4.6 -0.59961,6.5 -3.6,3.2 -7.1,6.59922 -11,10.19922 -2.9,-3.1 -5.70078,-6.09922 -8.30078,-9.19922 -0.3,-0.4 -0.19883,-1.90117 0.20117,-2.20117 3.3,-2.7 6.69922,-5.39844 10.19922,-7.89844 0.4,-0.3 1.07422,-0.525 1.69922,-0.625 z m 252.02539,0.625 c 13.27538,0.1627 24.3879,6.21095 34.27539,15.39844 5.09999,4.79999 9.90039,10.00118 13.40039,16.20117 0.4,0.8 0.99922,1.89961 0.69922,2.59961 -0.2,0.5 -1.60039,0.90039 -2.40039,0.90039 -11.19999,-0.4 -22.40001,-0.7 -33.5,-1.5 -7.89999,-0.6 -15.89962,-1.4 -23.09961,-5.5 -3.1,-1.8 -6.09961,-3.69961 -9.09961,-5.59961 l -2.40039,-1.5 c 0.2,-0.3 0.50117,-0.60039 0.70117,-0.90039 6.89999,1.6 13.70001,3.09922 20.5,4.69922 0.1,-0.3 0.19883,-0.7 0.29883,-1 -4.5,-1.5 -8.90001,-3.4 -13.5,-4.5 -3.8,-0.9 -7.1,-1.89961 -8.5,-6.59961 7.79999,-1.1 15.40118,-0.80078 23.20117,-0.30078 -5.29999,-3.1 -11.30001,-2.39844 -18,-3.39844 2.1,-1.1 3.29961,-1.8 4.59961,-2.5 v -0.60156 h -5.09961 c 3.4,-3.5 7.59962,-5.09961 12.09961,-5.59961 1.9875,-0.225 3.92774,-0.32207 5.82422,-0.29883 z m -312.32422,1.89844 c 6.49999,2.3 9.30039,14.20001 4.40039,21 -1.5,-7.19999 -2.90039,-14.00001 -4.40039,-21 z m 77.67383,2.61328 c 1,0.0375 2.02656,0.68828 3.22656,1.98828 -4.89999,8.69999 -9.8,17.19884 -15,26.29883 -1.8,-2.3 -3.30156,-4.39883 -5.10156,-6.29883 -3.1,-3.3 -3.19844,-3.2 0.10156,-6.5 C 236.40078,435.20079 241.1,430.7 245.5,426 c 1.1,-1.15 2.07422,-1.725 3.07422,-1.6875 z m 156.60937,3.75977 c 0.32188,0.0594 0.69219,0.20273 1.11719,0.42773 7.29999,3.6 10.99883,9.60001 11.79883,17.5 0.1,1.6 0.39961,3.30039 0.59961,5.40039 -6.59999,-1.3 -11.90001,-3.80118 -16.5,-7.70117 -2,-1.8 -1.99883,-4.29922 -1.29883,-6.69922 0.7,-2.4 1.80039,-4.69961 2.40039,-7.09961 0.375,-1.425 0.91719,-2.00625 1.88281,-1.82812 z m 31.61719,0.0273 c 1.7,0.4 3.29961,0.60117 4.59961,1.20117 2,1 3.89922,2.29961 5.69922,3.59961 0.7,0.5 1.00039,1.49883 1.40039,2.29883 -1,0.5 -2.40039,1.8 -2.90039,1.5 -3.1,-2 -5.89883,-4.2 -8.79883,-6.5 -0.2,-0.2 0,-0.99961 0,-2.09961 z m -172.10156,0.80078 c 0.2,2.5 0.4,4.8 0.5,7 0,0.4 -0.29961,1.09922 -0.0996,1.19922 2.9,1.8 1.6,4.30117 1,6.70117 0.3,0.1 0.50078,0.19883 0.80078,0.29883 0.8,-2.1 1.69961,-4.09922 2.59961,-6.19922 0.3,0 0.60039,0.0996 0.90039,0.0996 -0.7,7.09999 -1.39961,14.20001 -2.09961,21 -3.79999,0.2 -7.30117,0.6 -10.70117,0.5 -0.7,0 -2.1,-1.69922 -2,-2.19922 2.5,-9.39999 5.3,-18.80157 8,-28.10156 0,-0.1 0.19961,-0.0988 1.09961,-0.29883 z m -103.09961,0.29883 c 2.7,1.6 3.60117,11.2004 1.70117,16.90039 -0.9,2.7 -3.7,4.60117 -6.5,4.20117 1.6,-6.99999 3.19883,-14.10157 4.79883,-21.10156 z m 52.76367,2.48828 c 1.3625,-0.2875 2.8375,0.0629 3.9375,1.21289 1,1 1.99883,1.99922 2.79883,3.19922 3.9,5.79999 3.59999,6.40118 -1,11.70117 -4.8,5.7 -9.09922,11.69962 -13.69922,17.59961 -0.4,0.5 -0.90117,0.90039 -1.70117,1.90039 -1.9,-3.79999 -3.49961,-7.00078 -5.09961,-10.30078 -0.2,-0.4 -0.2,-1.1 0,-1.5 2.1,-3.9 4.4,-7.69961 6.5,-11.59961 1.7,-3.2 3.5,-6.39961 5,-9.59961 0.65,-1.4 1.90117,-2.32578 3.26367,-2.61328 z m 37.33594,1.61328 c 0.1,-0.1 0.4,0 1,0 -0.6,2 -1.09883,4 -1.79883,6.5 2.4,-1.9 2.29883,-5.70117 6.29883,-5.20117 -0.2,1.7 -0.39883,3.4 -0.79883,5 -1.6,5.99999 -3.30117,11.99961 -4.70117,18.09961 -0.6,2.3 -1.5,1.80156 -3,1.10156 -2.3,-1.1 -4.8,-2.00117 -7,-3.20117 -0.7,-0.4 -1.59844,-1.90039 -1.39844,-2.40039 3.7,-6.69999 7.49844,-13.29845 11.39844,-19.89844 z m 168.30078,3.5 c 3.7,0.8 6.79922,1.39883 9.69922,2.29883 2.9,0.8 5.50078,1.4 7.80078,-1.5 0.4,-0.5 2.5,-0.1 3.5,0.5 0.6,0.4 0.70078,2.30039 0.30078,2.90039 -1.9,2.7 -3.90078,5.39922 -6.30078,7.69922 -0.9,0.8 -2.79922,0.90039 -4.19922,0.90039 -1.2,0 -2.50117,-1.1 -3.70117,-1 -5,0.2 -5.7,-3.4 -6.5,-7 -0.2,-1.2 -0.29961,-2.49883 -0.59961,-4.79883 z m -42.09961,2.5 c 1.1,1.2 2.19922,1.89844 2.69922,2.89844 4.79999,9.29999 7.10039,19.10001 4.90039,29.5 -1.3,5.79999 -3.29922,7.30039 -8.69922,6.40039 0,-9.59999 -0.002,-18.89884 -0.10156,-29.29883 0.9,2.1 1.50156,3.59961 2.10156,5.09961 0.3,0 0.49883,-0.0996 0.79883,-0.0996 -0.5,-4.59999 -1.09922,-9.2 -1.69922,-14.5 z M 372.09961,441 c 0.3,0.6 0.80078,1.30039 0.80078,1.90039 v 17 c 0.1,4.8 0.10039,9.59883 -0.0996,14.29883 0,1.6 -0.70156,3.20078 -1.10156,4.80078 -2,-0.6 -4.69844,-0.60039 -5.89844,-1.90039 -3.3,-3.4 -4.20078,-7.89883 -3.80078,-12.79883 0.6,-7.29999 3.10039,-13.8 6.90039,-20 0.5,-0.7 0.9,-1.50156 1.5,-2.10156 0.5,-0.5 1.09922,-0.79922 1.69922,-1.19922 z m 84.09961,2.5 c 5.09999,-0.3 17.20157,9.7004 21.10156,17.40039 6.49999,12.89999 4.39961,25.70001 -0.40039,39 -2.5,-2 -4.70039,-3.50078 -6.40039,-5.30078 -5.59999,-5.79999 -11.40079,-11.39884 -16.30078,-17.79883 -6.79999,-8.89999 -8.8,-19.40079 -7.5,-31.30078 0.9,1.4 1.4,2.3 2,3.5 0.4,-1.4 0.7,-2.49961 1,-3.59961 0.4,-0.1 0.7,-0.20078 1,-0.30078 4.39999,9.09999 8.90078,18.20079 13.30078,27.30078 0.4,-0.2 0.69961,-0.3 1.09961,-0.5 -2.6,-6.69999 -5.10039,-13.40001 -7.90039,-20.5 1.5,0.4 2.30078,0.60039 3.80078,0.90039 -1.7,-3.2 -3.20078,-5.90078 -4.80078,-8.80078 z m -56.92383,2.90039 c 0.475,0.05 0.97422,0.20039 1.32422,0.40039 2.2,1.3 4.29961,2.79883 7.09961,4.79883 -2.9,1.3 -5.1,2.29961 -8,3.59961 -0.9,-2.1 -1.99961,-3.99961 -2.59961,-6.09961 -0.2,-0.7 0.4,-2 1,-2.5 0.25,-0.2 0.70078,-0.24922 1.17578,-0.19922 z m -224.375,2.90039 c 5.89999,0.3 9.39922,3.40001 11.19922,8.5 1.5,4.5 1.5,8.99844 -2,13.89844 -3.2,-7.79999 -6.09922,-14.89845 -9.19922,-22.39844 z m 263.59961,2 c 0.3,0 0.7,0.0996 1,0.0996 l -0.59961,13.5 c 0.3,0 0.60039,0.0996 0.90039,0.0996 l 2.09961,-10.19922 h 0.79883 c 1.7,7.69999 4.60039,15.30001 4.90039,23 0.3,7.69999 -1.99961,15.49884 -3.09961,23.29883 -0.4,0.1 -0.79922,0.30039 -1.19922,0.40039 -1.1,-2 -2.40117,-3.9 -3.20117,-6 -2.6,-6.69999 -5.39922,-13.29962 -7.19922,-20.09961 -2.4,-8.89999 0.79961,-16.79962 5.59961,-24.09961 z m -210.40039,0.29883 c 0.4,-0.1 1,0.40039 1.5,0.40039 1,-0.1 2.70039,-0.70039 2.90039,-0.40039 0.8,1.3 1.79961,3.00039 1.59961,4.40039 -0.3,3 -1.09961,5.89922 -2.09961,8.69922 -2.2,6.39999 -4.6,12.70157 -7,19.10156 -0.2,0.6 -0.60078,1.09922 -1.30078,2.19922 -1.6,-1.8 -2.59883,-3.19961 -3.79883,-4.59961 -3.2,-3.2 -6.40078,-6.40078 -9.80078,-9.30078 -1.7,-1.4 -1.99883,-2.59883 -0.79883,-4.29883 1.4,-1.9 2.6,-3.90078 4,-5.80078 1.3,-1.6 1.89883,-3.49961 4.79883,-4.09961 2.2,-0.4 3.70078,-3.59961 5.80078,-5.09961 1.1,-0.8 2.79922,-0.90117 4.19922,-1.20117 z m -60.5,2.09961 c 0.4,1 0.80117,1.90078 1.20117,2.80078 1.6,3.7 3.59922,7.40079 4.69922,11.30078 0.9,3.5 -0.19961,6.99844 -3.09961,9.39844 -0.4,0.4 -2.4,-0.1 -2.5,-0.5 -1.8,-7.19999 -3.90039,-14.29884 -1.90039,-21.79883 0.6,-0.4 1.09961,-0.80117 1.59961,-1.20117 z m 258.25,0.15039 c 0.85,-0.1 1.80117,-0.0496 2.45117,0.15039 0.8,0.3 1.69961,2.20078 1.59961,3.30078 -0.4,2.5 -1.30117,4.79922 -2.20117,7.69922 -3.9,-1.2 -7.69883,-2.3 -11.29883,-3.5 -3.7,-1.3 -7.30078,-2.69922 -11.30078,-4.19922 3.8,-3.6 7.50078,-2.80117 11.30078,-1.20117 2.9,1.4 5.49961,2 7.59961,-1.5 0.25,-0.4 0.99961,-0.65 1.84961,-0.75 z m 66.1875,2.88867 c 1.2625,-0.0125 2.51367,0.0121 3.76367,0.16211 5.5,0.5 11.09962,1.19961 16.59961,2.09961 1.1,0.2 2.10039,1.49922 2.90039,2.69922 -9.69999,1.9 -18.40157,-0.99961 -27.10156,-3.59961 v -1.29883 c 1.3,0 2.57539,-0.05 3.83789,-0.0625 z M 285.02539,457.25 c 3.275,-0.275 6.62461,0.30039 9.97461,1.65039 1.5,0.6 3.3,2.40039 3.5,3.90039 0.7,4.6 0.69961,9.29883 1.09961,14.79883 -4.9,-2.4 -8.99883,-6.00039 -13.79883,-4.40039 -4.19999,1.4 -8.10117,4.20039 -12.20117,6.40039 -0.3,-4.8 -0.79922,-9.49922 -0.69922,-14.19922 0,-1.6 1.29961,-3.80117 2.59961,-4.70117 3.05,-2.05 6.25039,-3.17422 9.52539,-3.44922 z M 405.5,461.40039 c 6.69999,2.4 13.49962,4.49922 20.09961,7.19922 1.3,0.6 2.20078,3.29961 2.30078,5.09961 0.2,2.3 -1.90039,3.20039 -3.90039,2.90039 -1.9,-0.2 -4.1,-0.59922 -5.5,-1.69922 -4.8,-4 -9.20079,-8.39961 -13.80078,-12.59961 0.3,-0.3 0.50078,-0.60039 0.80078,-0.90039 z m 78.40039,0.0996 c 4.9,-0.5 17.90039,9.99961 19.40039,15.59961 -4.29999,1.8 -5.9,1.3996 -9,-2.40039 l -9.90039,-12 c -0.2,-0.3 -0.3,-0.79922 -0.5,-1.19922 z M 259.09961,462 c 1.4,4.5 3.00078,9.09922 4.30078,13.19922 0.8,-1.1 1.99922,-2.79961 3.19922,-4.59961 0.5,0.1 0.90039,0.20078 1.40039,0.30078 0.5,6.99999 0.90039,13.89962 1.40039,21.09961 -5.29999,0.6 -10.69961,1.20039 -16.59961,1.90039 0,-6.19999 -0.10039,-12.80001 0.0996,-19.5 0,-2.4 1.1,-4.90078 1,-7.30078 -0.2,-3.7 1.39922,-5.19961 5.19922,-5.09961 z m -9.69922,0.30078 c 1.9,6 -0.80039,11.00001 -0.90039,16 -0.1,5.2 -0.6,10.50001 -1,16.5 -2,-0.9 -3.5,-1.70078 -5,-2.30078 -3.7,-1.4 -7.39961,-2.90078 -11.09961,-4.30078 -1.5,-0.6 -2.90078,-1.09922 -2.30078,-3.19922 1.6,-5.99999 3.20039,-12.00001 4.90039,-18 0.1,-0.4 0.50078,-0.69922 1.30078,-1.69922 0.9,2.1 1.69844,3.69883 2.39844,5.29883 2.1,-1.5 5.00078,-2.4 5.80078,-5.5 0.1,-0.2 2.20039,0 3.90039,0 0.1,-0.2 0.8,-1.09883 2,-2.79883 z m 258.38086,4.55274 c 7.70956,0.24472 21.38164,7.40938 21.11914,12.04687 -4.99999,0.5 -21.5,-7.60118 -24,-11.70117 0.8,-0.275 1.77949,-0.38067 2.88086,-0.3457 z M 486.09961,473 c 2.1,2.6 3.70117,4.69922 5.70117,7.19922 -1.1,0.5 -3.20117,1.4 -5.70117,2.5 z m -296.69922,3.59961 c 4.4,-0.6 9.9,4.0004 12.5,9.90039 2.3,5.49999 1.79961,8.20039 -2.40039,11.40039 -3.4,-6.99999 -6.69961,-14.00079 -10.09961,-21.30078 z m 99.13477,0.16992 c 1.95781,0.16719 3.98984,0.80469 5.96484,1.92969 1.9,1.1 3.09961,3.40117 4.59961,5.20117 -0.4,0.3 -0.7,0.60039 -1,0.90039 h -2.19922 c -3.7,0.1 -5.6,1.5 -6,5 -0.2,2.7 -0.40078,5.49961 0.19922,8.09961 0.7,2.7 -0.60039,2.80039 -2.40039,2.90039 -8.89999,0.5 -12.19883,-7.10079 -11.29883,-13.30078 1.05,-7.49999 6.26133,-11.23203 12.13477,-10.73047 z m 114.36523,0.42969 c 1.1,2.4 2.49922,4.60156 3.19922,7.10156 1.9,6.2 4.10078,12.39923 4.80078,18.69922 0.4,4.3 -1.00117,9.00079 -2.20117,13.30078 -0.6,2 -2.69961,2.89922 -5.09961,2.19922 -5.6,-1.6 -6.50039,-2.6004 -6.40039,-8.40039 0.1,-7.89999 0.40117,-15.89884 0.70117,-23.79883 0.1,-1.3 0.60039,-2.7 0.90039,-4 h 0.5 c 0.7,4.7 1.39922,9.49922 2.19922,14.19922 0.4,0 0.69961,-0.0996 1.09961,-0.0996 -0.2,-3.1 -0.49961,-6.10117 -0.59961,-9.20117 -0.1,-3.3 0,-6.49922 0,-9.69922 z m 9.29883,0.90039 c 1.7,0.5 2.70117,0.69961 3.70117,1.09961 3.7,1.7 7.49883,2.80156 11.79883,2.10156 0.7,-0.1 2.10156,1.49961 2.60156,2.59961 2.5,5.1 4.69961,10.19883 7.09961,15.29883 1.3,2.8 3,5.50117 4.5,8.20117 -0.3,0.2 -0.50078,0.39961 -0.80078,0.59961 -14.39999,-4.9 -22.3004,-16.2004 -28.90039,-29.90039 z m -232.39844,2.5 c 8.79999,3.1 12.4996,19.19962 5.09961,25.59961 -0.9,-2.3 -2.00039,-4.4 -2.40039,-6.5 -1.1,-5.6 -1.79922,-11.29844 -2.69922,-16.89844 -0.1,-0.7 0,-1.40117 0,-2.20117 z m 319.36133,1.58789 c 2.7125,-0.1875 5.43867,0.16289 8.13867,1.21289 5.6,2.2 10.99844,4.7 16.39844,7 -0.2,0.3 -0.29844,0.49883 -0.39844,0.79883 -1.1,0 -2.20078,0.20039 -3.30078,-0.0996 -10.59999,-1.5 -21.09962,-2.9 -32.59961,-4.5 1.7,-1.1 2.59922,-2.00039 3.69922,-2.40039 2.65,-1.1 5.35,-1.82422 8.0625,-2.01172 z M 393.5,483 c 0.2,0.2 0.49922,0.39961 0.69922,0.59961 -2.1,4.89999 0.9,9.6 0.5,14.5 -0.5,5.29999 -0.0996,10.6004 -0.0996,15.90039 -4.6,1.3 -7.69883,-0.30039 -9.29883,-4.40039 -2.6,-6.59999 -0.90156,-12.69962 2.39844,-18.59961 1.2,-2.1 2.50039,-4.20078 3.90039,-6.30078 0.4,-0.7 1.30039,-1.09922 1.90039,-1.69922 z m 94.30078,6.09961 c 11.69999,1.6 23.39923,3.20078 35.19922,4.80078 -5.19999,4.7 -29.39922,1.19921 -35.19922,-4.80078 z M 460.40039,492.5 c 8.69999,4.7 12.09883,15.89962 9.29883,30.09961 -5,-1.9 -11.79883,-23.69962 -9.29883,-30.09961 z M 498,498.09961 c 12.09999,3.6 23.89962,7.8004 33.59961,16.40039 9.69999,8.69999 14.90079,20.09962 19.30078,32.09961 -5.99999,-5.5 -12.80079,-10.39923 -17.80078,-16.69922 -6.99999,-8.99999 -16.09923,-14.89961 -25.19922,-21.09961 -0.7,-0.4 -1.20078,-1 -2.30078,-2 3.2,1.1 5.70078,1.89922 8.30078,2.69922 0.1,-0.4 0.30039,-0.69961 0.40039,-1.09961 C 508.70079,505.30039 503.09999,502.1 497.5,499 c 0.2,-0.3 0.3,-0.60039 0.5,-0.90039 z m -11.90039,1.20117 c 8.79999,4 9.40117,32.59884 4.20117,42.29883 -1.4,-13.99999 -2.90117,-28.29884 -4.20117,-42.29883 z m -3.29883,2.59961 c 1.4,13.29999 2.69961,25.90001 4.09961,38.5 -5.19999,-7.39999 -10.9996,-33.3 -4.09961,-38.5 z m -202.20117,0.29883 c 1.9,0.2 3.80117,0.7 5.70117,1 1.5,0.3 2.9,1 1.5,2.5 -4.09999,4.39999 -8.1004,8.90039 -13.90039,11.90039 -1.4,-5.89999 0.39961,-10.7004 4.09961,-14.90039 0.5,-0.5 1.69961,-0.6 2.59961,-0.5 z m 147.09961,2.90039 c 8.59999,5.99999 19.30118,8.30118 26.70117,16.20117 2,2 3.8,4.79883 2,6.79883 -2,2.1 -5.40078,3.10078 -8.30078,4.30078 -0.5,0.2 -1.69883,-0.8 -2.29883,-1.5 -6.09999,-7.59999 -12.20079,-15.39962 -18.30078,-23.09961 -0.4,-0.5 -0.39961,-1.40156 -0.59961,-2.10156 0.3,-0.2 0.49883,-0.39961 0.79883,-0.59961 z m -4.59961,1 c 7.19999,9.59999 14.40118,19.10118 21.70117,28.70117 -1.9,2.5 -6.50039,3.69961 -9.90039,2.09961 -3.8,-1.7 -6.2,-4.79961 -8,-8.59961 -3.3,-6.99999 -4.50117,-14.30079 -4.70117,-21.80078 0.3,-0.2 0.60039,-0.30039 0.90039,-0.40039 z m -194.98242,1.56055 c 1.23281,0.009 2.48359,0.21562 3.68359,0.64062 4.7,1.7 8.49922,6.79844 6.69922,12.39844 -6.59999,-2.9 -12.89923,-5.59844 -19.19922,-8.39844 1.575,-2.925 5.11797,-4.66875 8.81641,-4.64062 z m 274.08203,0.0391 c 9.89999,9.19999 19.8004,18.40118 29.90039,27.70117 0.4,-0.6 0.70117,-1.2 1.70117,-3 5,5.79999 9.79844,11.29923 14.89844,17.19922 -3.4,-1.3 -6.69883,-2.29961 -9.79883,-3.59961 -8.99999,-3.7 -18.40118,-6.60001 -26.20117,-13 -6.29999,-5.09999 -11,-11.39962 -14.5,-18.59961 -0.3,-0.6 0.002,-1.50078 0.10156,-2.30078 0.7,0.1 1.69922,3.9e-4 2.19922,0.40039 2.9,2.4 5.79922,4.90039 8.69922,7.40039 0.7,0.5 1.3,1 2,1.5 0.3,-0.2 0.50078,-0.50117 0.80078,-0.70117 -3.5,-4 -6.99922,-7.99922 -10.69922,-12.19922 0.3,-0.3 0.59844,-0.50078 0.89844,-0.80078 z M 256.40039,509.5 c 5.4,-0.4 10.4,4.1004 11.5,10.90039 -4.1,-0.7 -7.90078,-1.69961 -11.80078,-2.09961 -3.9,-0.4 -7.89922,-0.10156 -12.19922,-0.10156 0.1,-4.2 5.60001,-8.09922 12.5,-8.69922 z M 175,512.40039 c 3.7,-0.375 7.10078,0.0992 8.80078,1.69922 -10.89999,5.39999 -21.50001,10.60079 -32,15.80078 -0.7,-3.3 5.89962,-9.89961 12.59961,-14.09961 2.9,-1.8 6.89961,-3.02539 10.59961,-3.40039 z" />
  </g>
</svg>
